<?xml version="1.0" encoding="utf-8"?>
<!-- Generator: Adobe Illustrator 21.0.0, SVG Export Plug-In . SVG Version: 6.00 Build 0)  -->
<svg version="1.1" id="Layer_1" xmlns="http://www.w3.org/2000/svg" xmlns:xlink="http://www.w3.org/1999/xlink" x="0px" y="0px"
	 viewBox="0 0 808 300" style="enable-background:new 0 0 808 300;" xml:space="preserve">
<style type="text/css">
@font-face {
font-family: "OpenSans-Bold";
src: url("./OpenSans-Bold.ttf");
}
	.st0{fill:#FFFFFF;}
	.st1{font-family:'OpenSans-Bold';}
	.st2{font-size:92.4185px;}
</style>
<g>
	<path class="st0" d="M21,143.9c0.1-1.5,0.2-3,0.4-4.5c1.9-23.6,10-44.7,24.9-63.1c8.2-10.1,18-18.3,28.9-25.5
		c11.6-7.6,24.2-12.4,37.8-15c9.5-1.8,19.2-2.3,28.9-1.9c11.3,0.6,22.3,2.6,33,6.2c5.9,2,11.6,4.6,17.1,7.7
		c9.7,5.3,18.4,11.8,26.1,19.7c13,13.4,22.8,28.7,28.5,46.5c4,12.6,5.4,25.5,4.8,38.6c-0.6,13.6-3.4,26.8-8.4,39.5
		c-5.4,13.5-13.6,25.1-23.7,35.5c-13.3,13.5-28.8,23.4-46.8,29.4c-8.8,2.9-17.8,4.6-27,5.3c-14.4,1.1-28.6-0.2-42.5-4.1
		c-12.1-3.3-23-9.1-33.1-16.4c-15.4-11.2-27.8-25.2-36.8-42.1c-5.5-10.3-9.1-21.3-10.5-32.9c-0.5-4.2-0.8-8.3-1.2-12.5
		c0-0.3-0.1-0.6-0.1-0.9C21,150.3,21,147.1,21,143.9z M249,148.3c0-9.2-1-18.3-3.1-27.2c-2.7-11.9-7.5-22.8-14.2-33
		c-12.9-19.8-30.2-34.3-52.1-43.4c-11.4-4.8-23.2-7.6-35.5-8.4c-8.7-0.6-17.4-0.1-26,1.3c-12.5,2-24.5,5.8-35.7,11.7
		C68.8,56.3,57.4,66.1,47.9,78c-14.9,18.5-23,39.6-24.5,63.3c-0.7,10.8,0.3,21.4,2.7,31.9c2.5,11.2,6.4,21.9,12.4,31.7
		c12.4,20.2,29.4,35.2,50.6,45.4c10,4.8,20.5,8.1,31.6,9.4c9.9,1.2,19.7,1.1,29.6-0.1c10.3-1.3,20.2-3.8,29.8-7.8
		c16.1-6.7,29.9-16.7,41.3-29.8c7.8-8.9,14.6-18.7,19.2-29.7C246.4,178.3,248.9,163.5,249,148.3z"/>
	<path class="st0" d="M223.6,151c0,9.6-1.6,20.8-6.6,31.3c-12.4,26.1-32.2,43.4-60.5,50.5c-10.3,2.6-20.7,2.8-31.3,1.6
		c-25-2.6-49.9-18.9-63.4-40.3c-5.9-9.5-9.6-19.8-11.5-30.8c-1.3-7.9-1.6-15.8-0.7-23.7c1.5-14.9,6-28.8,14.9-40.9
		c14-19.1,32.5-31.3,55.8-35.7c14.7-2.8,29.2-1.6,43.3,3.1c21.9,7.2,38.3,21.1,49.6,41.1c4.4,7.8,7.1,16.2,8.7,25
		C223.1,137.8,223.6,143.4,223.6,151z M121.1,176.8c0.1,0.4,0.2,0.9,0.3,1.3c0.1,0.9,0.2,1.8,0.3,2.7c-0.2-0.2-0.5-0.4-0.6-0.7
		c-0.1-0.6-0.1-1.1-0.1-1.7c-1-0.3-1.9-0.6-2.9-0.8c-0.9-0.2-1.9-0.4-2.8-0.4c-2,0-2.3,0.6-1.4,2.4c0,0,0.1,0.1,0.1,0.1
		c1.7-0.1,3.4-0.2,5.1-0.4c0.6-0.1,1.1,0.1,1.2,0.7c0,0.2-0.6,0.6-0.9,0.6c-1.7,0.2-3.3,0.3-5,0.4c0,0.2,0,0.5,0.1,0.7
		c1.1,3,2.3,6,3.4,8.9c0.1,0.1,0.2,0.3,0.4,0.3c1.1,0.1,2.2,0.2,3.5,0.2c0,0.2,0,0.6,0,0.9c-1,0.1-2,0.1-3,0.2
		c-0.2,1.7,0.5,2.4,2.2,2c0.3-0.1,0.7-0.2,1-0.2c-0.3,0.9,0.4,1.4,0.8,2c-0.3,0-0.5-0.1-0.8-0.1c0.1,0.5,0.1,0.9,0.2,1.3
		c-2.4,0.1-4.8,0.4-7,1.4c2.3-0.4,4.7-0.4,7,0c0,0.3,0,0.7,0.1,1.1c0.3-0.1,0.6-0.2,0.8-0.2c0,0.5-0.1,1-0.1,1.5
		c-0.2-0.1-0.4-0.1-0.6-0.2c0,1.2,0,2.2,0,3.3c-2.3,0.1-4.7,0-7,0.3c-4.7,0.5-9.3,1.4-14,1.8c-5.1,0.5-10.1-0.2-14.6-2.9
		c-0.1-0.1-0.3-0.1-0.7-0.2c0,2.3,0.1,4.5,0,6.7c0,1,0.2,1.5,1.2,1.9c5.7,2.4,11.6,2.8,17.6,2.1c5.2-0.6,10.3-1.5,15.4-2.5
		c2-0.4,3.8-0.6,5.4,0.9c0.6,0.6,1.5,0.6,2.2,0.2c-1-0.8-2.1-1.5-3.1-2.3c-0.9-0.8-1.9-0.9-3-0.4c-0.2,0.1-0.5,0.3-0.7,0.4
		c-0.5-1.3,0.1-2.8,1.4-3.9c0.3,1.8,0.3,1.8,1.1,1.6c-0.2-0.9-0.3-1.7-0.5-2.7c-0.2,0.2-0.3,0.3-0.5,0.4c-0.1-0.6-0.2-1.1-0.3-1.6
		c0.2,0,0.5,0.1,0.7,0.1c0.1,0.3,0.1,0.6,0.2,0.9c1.1-0.2,1.6,0.5,1.7,1.5c0.1,0.5,0.1,1,0.2,1.4c0.1,0.4,0.3,0.8,0.4,1.3
		c1-0.5,1.8-1,3-1.6c-0.7-0.5-1.2-0.8-1.7-1.1c0.1-0.1,0.2-0.2,0.2-0.4c1.8-0.6,2.7,1.2,4.1,1.7c-0.6,1.7-2.6,1.3-3.4,2.6
		c0.7,0.5,1.8,0.7,1.4,2c1.6-0.4,2.9-1.1,3.3-1.9c0.9-1.8,0-3.9-1.8-4.7c-0.7-0.3-1.4-0.6-2.2-0.8c-1.8-0.3-3.6-0.5-5.3-0.8
		c0-1.1-0.1-2.1-0.1-3.2c1.1,0,2.2,0,3.3,0c0-0.1,0-0.1,0-0.2c-1.1-0.4-2.2-0.8-3.3-1.2c0-0.2-0.1-0.5-0.2-0.8
		c2.2,0.3,4.2,0.6,6.2,0.8c0-0.2,0.1-0.3,0.1-0.5c-1.9-1.4-4.1-1.6-6.4-1.8c0-0.4,0-0.9,0-1.3c2.1,0.4,4.2,0.8,6.3,1.2
		c0.1-0.7,0.2-1.3,0.4-2c-0.5,0-0.9,0-1.2,0.1c-0.7,0.1-1-0.3-1.2-0.8c-0.2-0.7,0.3-0.8,0.8-1c3.1-1.3,5.8-3.4,8.4-5.4
		c-1.9-2.6-3.8-5-5.6-7.6c-0.2-0.3-0.3-0.8-0.5-1.2c0.7-0.1,1.2-0.1,1.9-0.1c-0.4,0.3-0.8,0.5-1.1,0.7c0,0.1,0,0.2,0,0.3
		c0.6,0.1,1.2,0.3,1.7,0.3c0.6,0,1.2-0.1,1.8-0.1c0,0.1,0,0.3,0,0.4c-0.9,0.1-1.9,0.2-2.9,0.4c1.6,2.2,3.2,4.3,4.9,6.5
		c0.7-0.5,1.4-1,2.2-1.5c-0.2,1.3-0.3,2.5-0.4,3.8c-0.7-0.9-1.2-1.5-1.8-2.2c-0.1,0.1-0.1,0.1-0.2,0.2c0.1,0.2,0.2,0.4,0.4,0.6
		c0.7,0.7,1.4,1.3,2,2.1c1.4,1.7,2.7,3.5,4,5.3c0.4,0.6,0.2,1.1-0.5,1.2c-1,0.1-2.1,0-3.2,0c0-0.1,0-0.2,0-0.2
		c1.1-0.1,2.3-0.2,3.6-0.3c-0.6-0.8-1-1.4-1.5-2c-1.7,0.9-2.3,0.7-2.4-0.7c0.7,0.1,1.4,0.3,2.2,0.5c-0.9-1.3-1.8-2.4-2.7-3.7
		c-0.4,3.3-0.8,6.4-1.2,9.6c-0.6-0.5-1-0.9-1.5-1.3c0,1.3-0.9,0.6-1.6,1.1c0.2,0.3,0.4,0.7,0.7,0.8c3.2,1,6.5,1.5,9.8,1.3
		c0.2,0,0.4-0.2,0.7-0.3c-0.2-0.1-0.4-0.3-0.7-0.4c-1.2-0.2-2.4-0.2-3.6-0.4c-0.9-0.1-1.7-0.4-2.6-0.8c-0.2-0.1-0.2-0.5-0.3-0.7
		c0.2-0.1,0.4-0.2,0.6-0.2c2.1,0.2,4.1,0.4,6.3,0.5c-0.3-0.9-0.5-1.5-0.8-2.2c1,0,1.8,0,2.6,0c0,0.1,0,0.1,0,0.2
		c-0.7,0.2-1.4,0.3-2.1,0.5c0.4,0.5,0.9,1,0.9,1.3c-0.2,0.9,0.6,1.2,0.9,1.7c0.1,0.2,0.6,0.1,0.6,0.3c0.2,0.5,0.3,1,0.5,1.6
		c-3.1,1.9-6.3,4-9.6,6c0.4,0.3,0.6,0.6,0.9,0.8c3.2-2,6.4-4,9.6-6c0.4,0.6,0.8,1,1.1,1.5c0.1,0,0.2-0.1,0.3-0.1
		c-0.3-0.5-0.6-1.1-0.9-1.6c6.6-4.2,13.3-8.4,19.9-12.5c-0.3-0.8-0.7-0.6-1.1-0.3c-6.2,3.8-12.4,7.6-18.7,11.4
		c-0.3,0.2-0.5,0.3-0.8,0.5c0.2,0.4,0.3,0.7,0.5,1c-0.1,0-0.2,0.1-0.3,0.1c-0.3-0.7-0.6-1.5-1-2.3c5.5-2,8.6-6.3,10.6-11.6
		c0.7-2,1.3-4,1.9-6c0.9-3.2,1.7-6.5,2.6-9.8c-0.6,0-1.2,0.1-1.7,0c-0.6-0.1-1.3-0.1-1.6-0.4c-0.6-0.9-1.4-0.8-2.3-0.9
		c-0.7,0-1.4-0.2-2.1-0.2c0-0.1-0.1-0.2-0.1-0.4c0.8-1.4,1.4-2.9,2.4-4.1c0.7-0.8,0.9-1.6,0.9-2.6c0-0.9,0-1.8,0.3-2.6
		c0.1-0.4,0.8-0.8,1.2-0.8c0.6-0.1,1,0.5,1.1,1.1c0.1,0.7,0.1,1.5,0.1,2.2c0,0.3,0.2,0.6,0.3,0.7c0.7,0.4,3-0.1,3.6-0.8
		c-1.2-0.3-2.4-0.6-3.6-0.9c0-0.1,0-0.2,0-0.4c0.7-0.1,1.3-0.2,2-0.2c0.5,0,1.1,0.2,1.6,0.1c0.3,0,0.7-0.4,0.7-0.7
		c0-0.3-0.3-0.8-0.5-0.9c-1.4-0.4-2.9-0.7-4.3-1.1c-0.8-0.2-1.5-0.6-2.4-1c-1.2,1.1-2.8,1.6-4.6,1.5c-1.6-0.1-3.2-0.4-4.7-0.6
		c-1.4-0.2-2.8-0.6-4.2-0.8c-0.2,0.9,0.3,1.4,0.8,1.7c0.6,0.4,1.2,0.7,1.8,1.2c0.2,0.2,0.4,0.6,0.4,0.8c-0.1,0.2-0.5,0.4-0.8,0.4
		c-0.5,0.1-1.1,0-1.7,0c0.7,1.3,1.2,2.5,1.9,3.7c0.5,0.9,1.7,0.9,2.4,0.1c0.3-0.4,0.5-0.8,0.7-1.2c0.9-1.6,0.9-1.6,2.5-1
		c0.5,0.2,0.9,0.5,0.8,1.1c-0.1,0.7-0.6,0.8-1.1,0.8c-0.5,0-0.9,0-1.3,0c-0.2,1.5-0.3,2.9-0.5,4.4c-1,0.2-2.3,0.3-3.5,0.5
		c0.3,1,0.9,1,1.7,0.8c0.4-0.1,0.8,0.1,1.4,0.1c-0.7,1-1.5,1.2-2.3,1.1c-1.3-0.2-2.6-0.4-3.9-0.3c-1.8,0-3.6,0.3-5.4,0.4
		c-1.1,0-2.3-0.3-2.9-1.3c-0.8-1.3-1.8-1.2-3-1.1c-1.4,0.1-2.7,0.3-4.1,0.3c-0.6,0-1.3-0.3-2.1-0.5c0.3-0.4,0.5-0.7,0.7-0.9
		c-1.1-1.8-2.9-2.6-4.6-3.8c0.3,1.2,1.6,1.7,1.4,3c-0.8,0-1.4,0-2.1,0c-0.2-0.1-0.3-0.3-0.5-0.4c-0.1-1.1-0.2-2.3-0.2-3.4
		c0.5-0.1,1.2-0.3,1.5-0.1c0.8,0.5,1.2,0.1,1.6-0.5c1.8-2.8,3.6-5.6,5.4-8.5c0.8-1.2,1.5-2.4,2.4-3.8c0.5,1.5,0.8,2.8,1.4,3.9
		c0.7,1.1,1.7,2,2.6,3c0-0.1,0.1-0.3,0.1-0.4c0.6-0.2,1.2-0.4,1.9-0.5c0.7-0.1,1.2-0.1,1.9-0.7c1.3-1.1,2.7-2.6,4.9-2
		c-0.2-1,0.3-1.4,1.1-1.4c0.2,0,0.5-0.3,0.6-0.5c1.2-1.7,2.8-2.8,4.8-3.1c2.1-0.3,4.3-0.3,6.5-0.3c2.9,0,5.8,0.4,8.7-0.5
		c0.5-0.2,0.8-0.4,0.8-1c0-4.4,0-8.9,0-13.3c0-1-0.4-1.3-1.3-1.5c-11.9-2.8-24-3.3-36.1-2.6c-3.4,0.2-6.9,0.5-10.3,0.8
		c0,0-0.1,0-0.1,0c-2.8,0.4-5.7,0.8-8.5,1.2c-0.6,0.1-0.9,0.3-0.9,0.9c-0.2,4.5-0.4,8.9-0.7,13.4c0,0.3-0.1,0.7-0.2,1
		c0.1,0.1,0.3,0.3,0.5,0.5c-0.1,0.3-0.2,0.7-0.2,1c0.3,3,0.5,6,0.8,9c0.1,1.1,0.3,2.1,0.5,3.2c1,0,0.8-0.8,1.1-1.2
		c0.2-0.3,0.5-0.5,0.8-0.6c0.2,0,0.6,0.3,0.7,0.5c0.1,0.3-0.1,0.6-0.1,1c1.1,0.3,1.6,1.1,1.8,2.3c0.1,0.5,0.1,1,0.3,1.5
		c0.1,0.3,0.3,0.6,0.6,0.6c1.1,0.4,1.7,1.2,2.1,2.2c0.4,1.1,0.8,2.2,1.2,3.4c-0.4,0.2-0.9,0.3-1.3,0.4c-0.4,0.1-0.8,0.1-1.2,0.2
		c1.5,0.3,2.8,0.9,3.4,2.5c0.5-0.1,1-0.3,1.4-0.4C121,176.8,121,176.8,121.1,176.8z M157,170.6c0.9-0.1,1.8-0.2,2.7-0.3
		c-0.4-1-0.3-1.2,0.8-1.6c0.5-0.2,1-0.3,1.4-0.5c0-0.1-0.1-0.2-0.1-0.3c-0.7,0.1-1.4,0.4-2.1,0.4C158.2,168.4,157.5,169.4,157,170.6
		c-0.2,0.4-0.4,0.7-0.6,1.2c0.8,0,1.5,0,2.2,0C157.9,171.5,156.8,172,157,170.6z M106.1,147.4c-0.3,0.6-0.9,1.1-1,1.7
		c-0.6,2.5-1.1,5-1.7,7.5c-0.6,2.6-1.5,5.1-1.8,7.7c-0.3,2.1-0.7,3.9-1.9,5.6c-0.2,0.3-0.4,0.7-0.5,1.1c-0.8,2.7,0.8,5,3.7,5
		c1.5,0,3-0.1,4.5-0.2c-0.2-1.2-0.7-1.7-2-1.6c-1.1,0.1-2.2,0.3-3.2,0.4c-0.8,0.1-1.6,0.1-2.5-0.6c2.4-1.1,4.8-0.9,7.2-1
		c-0.4-1-1-1.3-2.2-1.1c-1,0.1-1.9,0.4-2.9,0.5c-0.8,0.1-1.6,0-2.3-0.6c1-0.8,2.2-0.8,3.3-0.9c1.2-0.1,2.3-0.1,3.5-0.1
		c0-0.1,0-0.2,0-0.3c-1.4-1.3-3.5-0.1-5-1c0.4-0.9,1.2-0.9,1.9-0.9c0.7,0,1.3,0,2,0c0.2,0,0.4-0.3,0.6-0.5c-0.2-0.2-0.4-0.5-0.7-0.5
		c-0.6,0-1.1,0.2-1.7,0.2c-0.5-0.1-0.9-0.4-1.3-0.6c0.4-0.3,0.7-0.6,1.2-0.8c0.3-0.1,0.7,0,1,0c0.4,0,0.7,0,1.2,0
		c-0.1-0.9-0.7-0.9-1.3-0.9c-0.7,0-1.5,0.2-2.2-0.6c0.5-0.3,0.9-0.5,1-0.6c0.2-0.5,0.3-1,0.5-1.1c0.4-0.1,0.8,0,1.3,0.1
		c-0.2-2.1-0.5-4.2-0.7-6.3c-0.1-0.6,0-1.1,0.8-1.3c0.7,3.5,1.3,6.9,2,10.4c1.7,8.3,3.8,16.5,6.8,24.4c0.5,1.3,1.4,2.6,2.2,3.8
		c0.4,0.6,1.2,0.9,1.8,1.3c0.1-0.1,0.1-0.2,0.2-0.2c-0.3-0.6-0.5-1.3-0.8-1.9c-0.3-0.6-0.5-1.3-0.8-2c-4.2-10.5-7-21.4-8.2-32.6
		c-0.3-2.8-0.4-5.7-0.6-8.5c0-0.5-0.1-0.9-0.2-1.3c0.1-0.3,0.2-0.6,0.2-1c0.1-4.6,0.3-9.3,0.4-13.9c0.6-0.1,1-0.2,1.4-0.3
		c5.5-0.7,11-1.5,16.5-1.9c9.9-0.8,19.7-0.8,29.6,0.4c4,0.5,7.9,1.3,11.7,2.7c0.6,0.2,0.8,0.4,0.8,1.1c0.1,2.9,0.4,5.9,0.4,8.8
		c0,12.6-2.6,24.7-6.1,36.7c-1.2,4.1-2.9,8-4.4,12.1c-0.2,0.6-0.4,1.3-0.6,2.2c0.4-0.2,0.6-0.3,0.8-0.5c1-0.6,2.1-1.1,2.6-2.5
		c5.2-13.5,8.7-27.3,9.5-41.8c0.3-5.9,0.2-11.7-0.4-17.5c-0.1-0.7-0.3-1-1-1.1c-8.2-1.8-16.5-2.8-24.9-3.2
		c-12.5-0.6-24.9,0.1-37.1,2.7c-0.7,0.2-1,0.5-1.1,1.2c-0.1,1.2-0.4,2.4-0.6,3.6c-1.1-0.7-1.4-1.4-1.1-2.6c0.2-0.8,0.7-1.6,0.8-2.4
		c0.1-1,0.7-1.2,1.5-1.3c7.3-1.5,14.7-2.4,22.2-2.7c14-0.6,27.8,0.4,41.4,3.7c0.7,0.2,1,0.5,1,1.1c0.3,3.1,0.8,6.3,1,9.4
		c0.3,6.5-0.4,13-1.2,19.4c-0.2,1.9-0.5,3.8-0.7,5.7c2.1,0.3,2.6,0.2,2.6-0.6c-0.5,0.1-0.9,0.4-1.4,0.3c-0.3,0-0.6-0.4-0.9-0.7
		c0.2-0.2,0.5-0.6,0.7-0.7c0.4-0.1,0.9,0,1.7,0c-0.3-0.7-0.4-1.5-0.8-2c-0.5-0.5-0.5-0.9-0.4-1.5c0.9-3.8,1.8-7.5,2.6-11.3
		c0.2-1,0.4-2,0.4-2.9c-0.1-1.4-0.4-2.8-0.6-4.3c-0.4-2.8-0.9-5.6-1.1-8.5c-0.2-3.6,0.7-6.9,4-9.1c0.7-0.5,1.2-1.5,1.7-2.3
		c0.1-0.2,0.1-0.6,0-0.8c-0.4-0.6-0.8-1.1-1.3-1.6c-0.7-0.6-1.1-0.5-1.4,0.4c-0.2,0.7-0.3,1.4-0.5,2c-0.4,1.3-0.7,2.6-1.3,3.8
		c-0.6,1.1-1.3,1-2.1,0.1c-0.2-0.2-0.3-0.4-0.5-0.6c-0.3,0.2-0.6,0.4-0.8,0.6c-0.3,0.2-0.5,0.3-0.8,0.5c-1-1-1.2-1.9-0.6-3
		c0.3-0.5,0.7-1,1.1-1.5c0.6-0.7,1.4-1.4,1.9-2.1c0.3-0.5,0.5-1.2,0.5-1.8c0-0.8,0.2-1.5,0.8-2.1c0.4-0.4,0.9-0.7,1.4-1
		c1.8-1.2,1.9-1.6,1.3-3.6c2.8-2,6-2.9,9.5-2.7c0.2,0,0.6,0.2,0.6,0.4c0.2,1.1,1,1.2,1.9,1.1c1.1-0.1,2.1,0.3,2.9,0.9
		c0.7,0.5,0.8,1.4,0.1,1.9c-1,0.7-2,1.3-3.3,2.1c0.3,2.2,0.6,4.6,1,7.1c0.2,1-0.1,1.6-0.9,2c-0.3,0.2-0.7,0.2-1,0.4
		c-0.3,0.2-0.6,0.5-0.6,0.8c-0.1,1.2,0.5,2.1,1.2,2.9c1,1.2,2.3,2.3,2.1,4.2c1.1-0.7,1.5-1.6,1.4-2.7c-0.1-1.3-0.3-2.6-0.5-3.9
		c-0.5,0.1-1.1,0.3-1.6,0.3c-0.4,0-0.9-0.1-0.8-0.7c0.1-0.3,0.4-0.9,0.5-0.9c0.9,0.1,1-0.5,1.3-1.1c0.2-0.5,0.4-0.9,0.7-1.4
		c0.5-0.8,0.3-1.5-0.1-2.2c-0.3-0.6-0.5-1.4-0.6-2.1c-0.1-0.6,0.3-1.1,1-1.1c1.1,0.1,1.7-0.6,2-1.4c0.3-0.8,0.5-1.7,0.6-2.5
		c0.1-0.8,0.3-1.5,1.3-1.5c0.8,0,1.7,0.7,1.8,1.5c0.1,0.5,0.1,1,0.3,1.4c1.2,3.1,2.4,6.2,3.6,9.3c0.3,0.8,0.7,0.9,1.4,0.6
		c1.3-0.4,1.7-0.2,2.1,1.1c0.1,0.4,0.2,0.8,0.4,1.3c-1.7,1-3.3,2.4-5.5,1.6c1-0.7,2.1-1.3,3.2-1.8c0.7-0.3,0.6-0.6,0.1-1.1
		c-1.2,1-2.5,1.8-4,0.2c0.3,2.2-0.8,3.7-1.3,5.4c-0.4,1.1-0.6,2.3-0.7,3.4c-0.1,0.5-0.1,0.8-0.5,1c-2.6,1.5-4.2,3.7-4.9,6.6
		c-0.7,2.7-0.6,5.4-0.6,8.2c0,2.4,0,4.9-0.1,7.3c-0.1,1.3-0.1,2.6-1,3.6c-0.5,0.5-0.5,1.1-0.4,1.8c1,5.8,3.2,11.4,2.7,17.2
		c2-0.1,3.8-0.2,5.8-0.3c-0.8-2.5-3.7-2.7-5.1-4.6c1.8-0.6,2.4-2.1,2.6-3.7c0.2-1.2,0.4-2.4,1.5-3.2c0.2-0.1,0.3-0.4,0.4-0.7
		c0.1-0.4,0-1,0.7-0.9c0.7,0.1,0.6,0.6,0.6,1.1c0,0.1,0,0.2,0.1,0.3c0.8,0,1.6,0,2.4,0c0.2-0.6,0.3-1.1,0.5-1.8
		c0.3,0.5,0.4,0.8,0.5,1c0.1,0.3,0.3,0.6,0.4,0.8c0.3,0.5,1.8,1.2,2.1,1c0.8-0.5,1.6-1.1,2.4-1.6c0.5,1.2,1.8,1.3,2.5,2.3
		c0.5,0.8,1.2,1.4,1.3,2.4c0.1,1.4,0.2,2.8,0.3,4.2c-2.1,0.2-1.6,2.2-2.8,3.3c2.5,0,4.6,0,6.7,0c0.2,0,0.4-0.2,0.5-0.3
		c-0.2-0.2-0.3-0.4-0.5-0.5c-0.7-0.1-1.4-0.1-2.1-0.2c-0.9-0.1-1.8-0.1-2.7-0.2c0-0.1,0-0.3-0.1-0.4c0.6-0.2,1.2-0.5,1.8-0.6
		c1-0.1,2.1,0,3.2,0c0.6,0,1.2-0.1,1.5-0.9c2.8-6.7,4.4-13.6,5.1-20.8c0.6-6.3,0.6-12.6-0.1-19c-0.9-7.7-2.6-15.2-5.7-22.3
		c-5.2-12.2-12.9-22.5-22.7-31.4c-7-6.3-14.8-11.5-23.7-14.8c-14.8-5.7-30.2-7.2-45.8-5c-10.7,1.5-20.7,4.9-29.9,10.5
		c-16.6,10.1-28.9,23.9-36,42.1c-4.7,11.9-6.4,24.4-5.4,37.2c0.1,1.9,0.4,3.7,0.6,5.7c2.2-1,4.2-0.5,6.1,0.3
		c0.2,0.1,0.5,0.2,0.7,0.2c1.6-0.6,2.6,0.3,3.6,1.3c0.8,0.8,1.5,1.7,2.3,2.5c0.8,0.8,1.9,1.2,3.1,0.8c0.2-0.1,0.5-0.1,0.6,0
		c1.3,1.1,2.6,0.7,4,0.2c1.5-0.6,3-0.9,4.4,0.4c0.3-1,0.6-1.9,0.8-2.8c0.4-1.6,0.6-3.4,1.3-4.9c1-2.1,0.9-4.1,0.2-6.2
		c-0.5-1.5-0.8-3.1-1.1-4.5c-1.2,0.6-2.5,1.5-4,2c-1.9,0.7-3.8-0.6-4-2.6c-0.2-1.9-0.1-3.8-0.1-5.7c0-0.9,0.2-1.7,0.9-2.4
		c0.6-0.6,1.1-1.3,1.6-2c1.1-1.5,2.1-3.1,3.3-4.6c1.7-2.2,3.9-3.5,6.8-3.5c1.1,0,2.1-0.4,2.7-1.4c0.9-1.6,0.6-3.2,0.4-4.9
		c0-0.1-0.2-0.2-0.3-0.4c-0.5-0.7-1.1-1.3-1.5-2c-0.8-1.4-1.5-2.8-3.1-3.2c0-1.4,0.5-2,1.6-2.5c0.6-0.2,1.3-0.4,1.9-0.5
		c1.3-0.3,2.5-0.7,2.9-2.2c1.2,0.3,1.8-0.4,2.3-1.2c0.3-0.5,0.6-1,1-1.3c0.3-0.2,0.8-0.4,1.1-0.3c0.2,0.1,0.4,0.6,0.4,0.9
		c0.1,1.1-0.7,1.9-2,2.3c-0.1,0-0.2,0.1-0.4,0.2c0.1,0.3,0.2,0.5,0.3,0.9c1-0.7,2-1.4,2.7-1.9c0.8,0.1,1.4,0.2,2.1,0.3
		c0-0.1,0-0.3,0.1-0.5c0.3-1.8-0.3-2.6-2.1-2.7c-0.8-0.1-1.7-0.1-2.5-0.2c-0.7-0.1-1.1,0.2-1.4,0.8c-0.2,0.4-0.3,0.9-0.5,1.3
		c-0.2,0.4-0.5,0.7-1,1.2c-0.1-0.5-0.2-0.7-0.2-0.9c-0.1-1.8,1.1-3.2,3-3.3c1.2-0.1,2.5,0.1,3.7,0.2c1.5,0.1,2.4,0.9,2.6,2.3
		c0.1,0.8,0.1,1.6,0.2,2.4c0.1,0.8,0.1,1.6,0.2,2.4c1.9,0,3.3,0.8,4.6,1.9c1.2,1.1,1,2.7-0.4,3.4c-0.6,0.3-1.3,0.5-1.9,0.6
		c-1.7,0.3-2.8,1.3-3.6,2.7c-1,1.8-0.9,3.4,0.7,4.7c1,0.9,2.2,1.6,3.4,2.4c1,0.7,2,1.4,3,2.2c0.2,0.2,0.5,0.6,0.4,0.9
		c-0.3,2,0.3,3.9,1.1,5.7c0.5,1.2,1.1,2.4,1.6,3.7c0.5,1.4,1,2.8,0.1,4.2C105.8,147,106,147.2,106.1,147.4z M202.5,201.4
		c0.8-1.1,1.9-2.5,3-4.1c-2.2,0-4.2,0-6.2,0c-0.5,0-1-0.3-1.5-0.4c-0.2-0.1-0.5-0.1-0.7-0.1c-0.7,0.2-1.3,0.6-2,0.6
		c-0.4,0-1.3-0.4-1.3-0.5c0.1-0.6-0.1-1.4,0.9-1.6c0.3-0.1,0.6-0.2,0.9-0.3c-0.2-1.5-0.4-1.7-1.2-1.4c0.2,0.2,0.4,0.5,0.7,0.8
		c-1.6,1.7-3.5,1-5.3,0.7c-0.6,1.5-0.3,2.3,1.1,2.8c0.7,0.3,1.4,0.4,2,0.7c0.5,0.2,1.1,0.5,1.5,0.9c0.7,0.7,0.5,1.4-0.4,1.6
		c-1.2,0.3-2.5,0.6-3.7,0.4c-2-0.4-4-0.1-6.3,0.2c0.4,0.2,0.5,0.2,0.6,0.3c1.2,1.1,1.1,1.7-0.5,2.2c-2,0.6-4,0.3-6,0
		c-0.4-0.1-0.9,0-1.2,0.2c-0.9,0.4-3.3,0.3-3.8-0.3c-0.4-0.6-0.7-1.4-0.8-2.2c-0.1-0.9,0-1.9,0-2.8c0-0.6-0.2-0.9-0.9-0.9
		c-0.9,0.1-1.7,0-2.6-0.1c-2-0.2-3.9-0.6-5.9-0.7c-1.8-0.1-3.1,0.8-4.1,2.4c0.9,0.1,1.8,0.2,2.6,0.3c0,0.1,0,0.2,0,0.4
		c-4.9-0.5-8,2.9-11.8,5.1c0.3,0.4,0.5,0.7,0.7,1.2c-1.3-0.3-5.7,1.4-6,2.3c0.5,0,0.9,0,1.4,0c0.9,0,1.7,0,2.6,0
		c0.1,0,0.3,0.2,0.4,0.3c-0.1,0.1-0.2,0.3-0.3,0.3c-1.8,0.1-3.7,1.1-5.4,0.1c-0.9,0.7-1.7,1.3-2.6,1.9c0.9,1.3,4.5,3.3,6,3.4
		c1,0.1,1.7-0.4,2-1.3c0.3-0.8,0.4-1.7,0.6-2.5c0.3-1.4,0.5-2.8,0.8-4.4c1.1,1.1,2,1.8,2.7,2.8c1,1.4,1.9,3,2.8,4.5
		c0.5,0.7,1,1.4,1.7,2.3c-13-1.4-25.7,0.8-38.3,0.7c0,0.9-0.1,1.6-0.1,2.3c-0.1,1.2-0.3,2.4-0.2,3.6c0.1,1.8,1.2,2.8,3,2.6
		c5-0.5,9.9-1.1,14.9-1.5c8.2-0.6,16.4-0.6,24.5,1.5c2,0.5,3.3-0.2,3.5-2.3c0.2-1.8,0-3.7,0-5.7c-2.1-0.4-4.2-0.8-6.3-1.1
		c0,0.1-0.1,0.2-0.1,0.2c0.7,0.9,1.4,1.8,2,2.7c0.9-0.4,1.6-0.2,2,0.8c0.4,1,0.7,2.1,1.1,3.3c-1.5,0.2-2.8-1.4-4.1,0
		c-0.1,0-0.1-0.1-0.2-0.1c0.3-1.1,0.6-2.2,0.9-3.5c0.4,0.5,0.6,0.8,0.9,1c0.1-0.1,0.2-0.1,0.3-0.2c-0.2-0.3-0.5-1-0.7-1
		c-0.8,0-0.9-0.5-1.2-0.9c-0.7-1.1-1.4-2.4-2.1-3.5c-0.5-0.8-1.1-1.5-1.7-2.3c0.4,0,0.7,0.1,0.9,0.2c5.9,2.5,12,3.9,18.5,3.5
		c3.5-0.2,6.8-1.1,9.9-2.8c0.3-0.2,0.6-0.6,0.6-0.8c-0.3-2.1-0.7-4.3-1-6.4c-0.4,0.1-0.9,0.2-1.4,0.4c-2.6,0.7-5.2,1.5-7.8,2
		c-3.4,0.6-6.8-0.2-10.1-1.2c-3.2-1-6.5-1.9-9.7-2.9c-0.8-0.2-1.4,0-1.9,0.5c-0.6,0.7-1.2,1.5-1.8,2.3c-1-1.1-1-2.2,0.1-3.1
		c0.5-0.4,1.1-0.6,1.7-0.8c1-0.3,2.1-0.3,2.8-1.2c0.1-0.1,0.4-0.1,0.5-0.1c1.5,0,3-0.1,4.5,0c1,0,2,0.3,3,0.4c0,0.1,0,0.3,0,0.4
		c-0.6,0.1-1.3,0.3-1.9,0.3c-0.8,0-1.6-0.2-2.4-0.2c-0.5,0-1.1,0.2-1.6,0.3c0,0.1,0,0.3,0,0.4c2,0.7,4,1.6,6,2.2
		c6.5,2.1,12.9,2,19.1-1c0.5-0.3,1.2-0.3,1.8-0.3c0.2,0,0.5,0.4,0.5,0.7c0.2,1.1,0.2,2.2,0.4,3.2c0.4,2.2,1.1,4.4-0.8,6.4
		c1.9,0.3,3.4-0.2,4.6-1.7c-0.9-0.2-2,0.3-2.7-0.9c0.7-0.1,1.3-0.3,1.8-0.3c0.9-0.1,1.8,0,2.7-0.1c1.1-0.1,1.8-0.8,2-2
		c-0.9,0.1-1.8,0.1-2.7,0.2c-1.1,0.1-2.3,0.3-3.4,0.5c-0.7,0.1-0.9-0.4-0.9-0.9c0-0.2,0.4-0.6,0.7-0.6c1.5-0.1,2.9-0.1,4.4-0.1
		c0.9,0,1.9,0,2.8-0.1c1.3-0.2,2.1-1,2.6-2.4c-1,0-1.9,0-2.8,0c-1.7,0.1-3.3,0.3-5,0.2c-0.8,0-1.7-0.4-2.5-0.6c0-0.2,0-0.3,0.1-0.5
		c1.8,0,3.7,0,5.5,0c1.4,0,2.8,0.1,4.2-0.1c2-0.2,3.6-1.2,4.6-3.3c-0.6,0-1.1,0-1.6,0c-0.7,0-1.4,0.3-2,0.2c-0.5-0.1-1-0.5-1.5-0.8
		c0.4-0.4,0.7-1.1,1.2-1.2c1-0.3,2.1-0.3,3.2-0.4c0,0.1,0,0.2,0.1,0.2c-0.3,0.3-0.6,0.7-0.9,1.1
		C200.5,201.6,201.3,201.5,202.5,201.4z M95.3,215.8c0,0.1,0,0.2,0,0.3c-1.4,0.1-2.8,0.3-4.2,0.4c-1.4,0.1-2.8,0-4.4,0
		c0.6,1.1,1.6,1.6,2.7,1.7c0.9,0.1,1.9,0.1,2.9,0.2c1,0.1,2,0.3,2.9,0.5c-1.1,1.3-2.6,0.4-3.8,1c0.7,0.5,1.4,1.1,2.2,1.3
		c1.6,0.3,3.3,0.6,4.9,0.6c2.1,0,4.2-0.2,6.3-0.2c1.8,0,3.5,0,5.3,0.1c0.6,0,1.2,0,1.8,0.1c0.7,0.2,1.4,0.5,2.1,0.8
		c0,0.1-0.1,0.2-0.1,0.3c-5.7,0.5-11.3-0.8-17.1,0.2c1.1,0.8,2.1,1.6,3.3,1.9c1.9,0.4,4,0.7,6,0.7c2.8,0,5.6-0.3,8.3-0.4
		c1-0.1,1.8,0.3,2.7,1.1c-0.6,0.2-1.1,0.4-1.5,0.4c-3,0-6,0-9,0c-0.3,0-0.6,0-1,0c0.3,0.3,0.7,0.5,1,0.6c2.7,0.9,5.5,1.8,8.2,2.7
		c0.8,0.3,1.5,0.3,2.4,0.1c1-0.2,2-0.2,3-0.2c3,0.2,5.9,0.6,8.9,0.9c0,0,0.1,0.1,0.1,0.2c0.1,0.1,0.1,0.1,0.2,0.2
		c-0.3,0.2-0.6,0.3-0.8,0.5c-0.1,0.1-0.1,0.5-0.1,0.6c0.4,0.1,0.7,0.2,1.1,0.3c0-0.1,0-0.1,0-0.2c-0.2-0.1-0.4-0.1-0.7-0.2
		c0.6-0.9,1.4-1.1,2.2-1.2c1.5-0.2,2.9-0.4,4.4-0.5c0.6-0.1,1.2,0,1.7,0.2c0.4,0.1,0.7,0.5,1,0.7c0,0.1-0.1,0.2-0.1,0.3
		c-0.9,0.1-1.8,0.1-2.8,0.2c1,0,2,0,3,0c0.2,0,0.4,0,0.5-0.1c0.4-0.2,0.7-0.6,1.1-0.8c2-0.6,4-0.4,6-0.1c2.5,0.3,4.9,0.6,7.4,0.7
		c1.3,0.1,2.5-0.5,3.8-1.3c-4-0.2-7.8-0.4-11.5-0.6c0.4-0.3,0.8-0.5,1.2-0.5c2.1-0.1,4.2-0.3,6.3-0.3c3.2,0,6.3,0.5,9.5-0.1
		c0.9-0.2,1.9-0.6,2.8-0.9c0-0.1-0.1-0.1-0.1-0.2c-0.6,0-1.2-0.1-1.9-0.2c0.5-1.1,1.3-1.4,2.3-1.3c0.8,0.1,1.5,0.3,2.3,0.4
		c1.2,0.2,2-0.1,2.6-1c-1.3-0.7-2.9,0.2-4.3-1c0.7-0.2,1.2-0.4,1.7-0.4c1.2,0,2.5-0.2,3.6,0.1c2.1,0.5,3.7-0.6,5.1-1.6
		c1.3-0.9,2.6-1.6,3.9-2.3c0.6-0.2,1.1-0.6,1.6-0.8c-0.3-0.2-0.5-0.2-0.7-0.2c-4.5,0.2-8.9,0.5-13.4,0.7c-0.7,0-1.3-0.1-1.9-0.8
		c1.4-0.1,2.7-0.1,4-0.2c4.6-0.3,9.1-0.7,13.7-1.1c0.6-0.1,1.1-0.5,1.7-0.8c-0.7-0.4-1.2-0.8-1.8-1.1c-5.6,2.5-11.6,2.9-18,2.3
		c0,1.9,0,3.6,0,5.4c0,0.8-0.3,1.3-0.9,1.8c-1.6,1.4-3.5,1.7-5.5,1.5c-2.5-0.2-5-0.6-7.5-0.9c-0.1,0-0.2,0-0.4,0
		c0.1,0.2,0.2,0.4,0.3,0.6c-5,1.1-9.8,0.2-14.7-0.3c3.5-1,7-0.3,10.5-0.8c-0.2-0.1-0.3-0.2-0.5-0.2c-4.2-0.6-8.4-0.2-12.6,0.3
		c-4.8,0.6-9.5,1.3-14.3,1.1c-1.5-0.1-2.3-0.7-2.9-1.9c-0.3-0.6-0.5-1.2-0.6-1.8c-0.1-2.1-0.1-4.2-0.2-6.3c-0.1-1.4,0-2.6,1.4-3.4
		c-7.8,1.6-15.6,3-23.6,2.1C94.8,215.5,95.1,215.6,95.3,215.8z M182,171.1c0.2-0.1,0.4-0.2,0.5-0.2c0-0.7,0.1-1.4-0.1-2
		c-0.7-1.8-1.9-3.3-3.7-4.2c-1.4-0.7-2.9-0.7-4.3,0.1c-0.3,0.2-0.5,0.7-0.5,1c0.4,2.3,0.8,4.6,1.2,6.9c0.3,2.1,0.9,4.1,0.6,6.3
		c-0.7,4.5-1.4,9.1-1.9,13.7c-0.2,2.3,0,4.7,0,7.1c1.4,0,2.7,0,4.1,0c-0.4-1.5-2.3-1.9-2.4-3.7c1.1,0.7,2,1.2,2.9,1.8
		c0.2-1.1,0-1.6-0.7-2.5c-0.5-0.6-1-1.1-1.4-1.7c-0.4-0.6-0.6-1.2,0-2.1c0.6,0.8,1.2,1.5,1.7,2.2c0.1-0.1,0.3-0.1,0.4-0.2
		c-0.1-0.7-0.2-1.5-0.5-2.1c-0.2-0.7-0.7-1.2-1-1.9c-0.2-0.4-0.1-0.9-0.2-1.4c0.1,0,0.2,0,0.3,0c0.5,0.6,1.1,1.2,1.7,1.9
		c0.3-2.1-1.9-3-1.8-4.8c0.1-0.1,0.2-0.2,0.3-0.2c0.6,0.6,1.1,1.2,1.7,1.7c0.1,0,0.2,0,0.3-0.1c-0.1-0.6,0-1.3-0.2-1.9
		c-0.2-0.7-0.7-1.3-1-2c-0.2-0.5-0.3-1-0.5-1.5c0.1,0,0.1-0.1,0.2-0.1c0.6,0.6,1.3,1.2,1.9,1.8c0.7-1,0.6-1.8,0.1-2.6
		c-0.4-0.6-0.9-1.1-1.2-1.7c-0.3-0.5-0.4-1.2-0.5-1.8c0.1,0,0.2-0.1,0.3-0.1c0.6,0.8,1.2,1.5,1.9,2.4c0.8-1.1,0.7-2.1,0.2-3
		c-0.4-0.8-1-1.5-1.5-2.4c-0.3-0.6-0.6-1.3-0.8-2c0.1-0.1,0.3-0.1,0.4-0.2c1,1.2,1.9,2.4,2.9,3.6c0.8-1,0.8-1.8,0.1-2.8
		c-0.7-0.9-1.5-1.7-2.1-2.6c-0.4-0.6-0.8-1.3-1.1-2c0.1-0.1,0.2-0.1,0.3-0.2C179.6,168.6,180.8,169.9,182,171.1z M97.3,137
		c0.1,0,0.2,0,0.4,0c0.1,0.8,0.2,1.6,0.3,2.5c0.1,1.2,0.2,2.4,0.5,3.5c0.4,1.2,1.4,1.6,2.5,1.1c0.7-0.3,1.4-0.7,1.9-1
		c0-0.8-0.1-1.4,0-1.9c0.3-1.2,0-2.2-0.6-3.3c-0.1-0.2-0.3-0.4-0.2-0.5c0.6-1.3-0.1-2.4-0.4-3.5c-0.3-0.9-0.8-1.2-1.7-1
		c-0.9,0.2-1.3-0.1-1.2-1c-1.7,0.4-1.7,0.4-1.9-0.2c-1.1,1.2-2.2,2.5-3.4,3.8c-0.6-0.8-0.2-1.4,0.3-1.9c0.6-0.6,1.2-1.2,1.8-1.8
		c0.5-0.6,0.9-1.2,0.5-2.1c-0.5,0.4-0.9,0.7-1.5,1.2c0-0.8,0-1.4,0-2.1c-0.4,0.5-0.8,0.9-1.1,1.3c0.6,0.9,0.3,1.6-0.8,2.2
		c-0.9,0.5-0.8-0.5-1.3-0.8c0.1,0.4,0.3,0.8,0.5,1.2c0.1,0.2,0.3,0.3,0.4,0.5c0.3,0.9,0.6,1.8,0.9,2.7c0.3,0.8,0.4,1.5-0.3,2.2
		c-0.2,0.2-0.3,0.7-0.2,1c0.4,2.2,0.8,4.5,1.2,6.7c0.4,2.1,0.9,4.3,1.4,6.4c0.1,0,0.3,0,0.4,0c0.1-0.5,0.4-0.9,0.4-1.4
		c0.2-2.6,0.4-5.2,0.6-7.7C97.1,140.9,97.2,139,97.3,137z M178.1,126c-0.4,0.3-0.8,0.6-1.1,0.9c-1.6,1.5-2.4,3.4-2.3,5.5
		c0,2.5,0.4,5,0.6,7.5c0,0.5,0,1,0,1.6c0,0.4-0.2,0.8,0,1.1c0.9,2.3,1.6,4.5,0.8,7c0,0.1,0,0.3,0,0.4c0.6,0.7,0.3,1.4-0.1,2
		c-0.2,0.3-0.4,0.7-0.4,1.1c0.1,2.2-0.7,4.2-1.3,6.2c-0.3,1.1-0.4,2.4-0.6,3.6c0.6,0,0.9,0,1.1,0c0.2-0.5,0.2-1.1,0.4-1.4
		c0.8-1,0.8-2.2,1-3.3c0.1-0.4,0.2-0.7,0.3-1.1c0.1-0.7,0-1.4,0.2-2c0.2-0.7,0.6-1.3,0.9-2c-0.2-0.1-0.4-0.2-0.6-0.3
		c0.3-0.3,0.5-0.6,0.6-0.8c-0.2-0.4-0.4-0.7-0.7-1c0.2-0.3,0.5-0.6,0.6-0.6c-0.2-1.1-0.6-2.2-0.3-3c0.2-0.7,0-1.2-0.1-1.8
		c-0.1-0.9-0.1-1.8-0.2-2.9c-0.5-0.2-0.5-0.9-0.4-1.6c0.1-0.7-0.1-1.5-0.3-2.2c-0.2-0.7-0.6-1.4-0.7-2.1c-0.1-0.6-0.1-1.2-0.1-1.8
		c0.1,0,0.2,0,0.3,0c2.5,3.4,2.9,7.9,5.4,11.4c0.2-0.5,0.1-1,0.2-1.5c0-0.4,0.2-0.7,0.3-1.2c0.6,0.5,1,0.8,1.6,1.2
		c0.1-0.8,0.1-1.4,0.2-2c0-0.2,0.3-0.7,0.4-0.6c0.3,0,0.6,0.2,0.8,0.4c0.3,0.3,0.4,0.8,0.6,1.3c0.6-1.2-0.6-2.6,0.7-3.7
		c0.5,0.7,1,1.3,1.6,2c0,0,0.3-0.2,0.3-0.4c0.1-0.6,0-1.2,0-1.8c0-0.7,0-1.3,0.1-2c0-0.2,0.4-0.5,0.7-0.5c0.1,0,0.4,0.3,0.5,0.5
		c0.1,0.2,0.1,0.5,0.2,0.7c0.3-1.1,0-2.3,1.3-2.9c0.4,0.6,0.7,1.2,1,1.8c0.1,0,0.2,0,0.3-0.1c0-0.6-0.1-1.2-0.1-1.9
		c-0.1-0.7-0.3-1.5,0.5-1.8c0.4,0.3,0.7,0.6,1,0.9c0.1-0.1,0.1-0.1,0.2-0.2c-0.1-0.2-0.2-0.5-0.4-0.7c-0.5-0.9-0.9-1-1.6-0.2
		c-0.6,0.7-1.2,1.4-1.9,2c-1.7,1.6-3.3,3.2-5,4.7c-0.8,0.7-2,1.1-3.1,1.7c-0.2-1.5-0.4-2.7,0.1-4.1c-0.8,0-1.7,0-2.8,0
		c0.7-0.8,0.3-1.9,1.4-2c0-0.4,0-0.8-0.1-1.2c-1.1-0.3-2.3-0.7-3.5-1.1c0-0.1,0-0.2-0.1-0.3c1-0.3,2.1-0.6,3-0.9
		c0-0.4,0.1-0.9,0.2-1.6c-0.8-0.2-1.7-0.3-2.9-0.6c0.5-0.7,0.9-1.4,1.4-1.8c0.4-0.2,1.1,0,1.6,0C179.3,127.7,178.8,126.9,178.1,126z
		 M83.8,187.7c1.4-1.6,3-0.6,4.5-1c0.1-0.6,0.2-1.2,0.4-1.8c-1.7-0.3-3.4,0.1-4.8-1.2c0.6-0.2,1.2-0.4,1.8-0.4c0.7,0,1.5,0.1,2.2,0
		c0.3,0,0.7-0.4,0.7-0.5c-0.1-0.5-0.3-1.1-0.7-1.4c-0.2-0.2-0.8,0.1-1.2,0.2c-0.2,0.1-0.4,0.3-0.7,0.4c-0.9,0.6-1.9,1-2.8,0.2
		c-0.1,2.6-0.2,5.2-0.3,7.8c-0.1,3.5-0.4,7,0.6,10.4c0.1,0.2-0.1,0.6-0.3,0.7c-2.3,1.7-4.8,3.1-7.7,3.5c-0.7,0.1-1.4,0.2-2.3,0.3
		c0.9,0.9,1.5,1.8,2.8,1.7c1-0.1,2-0.1,3-0.1c1.2-0.1,2.5-0.2,3.7-0.1c0.4,0,0.8,0.5,1.1,0.8c-0.3,0.2-0.6,0.6-0.9,0.6
		c-1,0-2,0-3.1-0.1c-1.1,0-2.1,0-3.3,0c0.6,1.1,1.4,1.5,2.3,1.6c1,0.1,2,0.1,3.1,0.2c0.6,0,1.1,0.1,1.7,0.2c0,0.1,0,0.3,0,0.4
		c-1.4,0.2-2.8,0.5-4.3,0.7c1.2,2.4,3.5,1.4,5.2,1.7c-0.1-0.5-0.2-0.9-0.2-1.3c0-2.8,0-5.6,0-8.3c0-1.3,0.5-1.8,1.7-1.6
		c0.6,0.1,1.3,0.3,2,0.5c0-0.8,0-1.4,0-2c-1.3,0.2-2.5,0.3-3.7,0.4c-0.3-1.5-0.3-1.6,1.1-2.1c-1.9-1.7-2.3-3.1-1.4-4.4
		c-1.1-0.6-0.6-1.6-0.5-2.4c0.2-1.1,0.5-1.2,1.4-0.5c0.6,0.4,1.2,0.8,1.9,1c0.5,0.1,1.2,0.1,1.3-0.7c0.1-0.9,0-1.8,0-2.7
		C86.6,188.1,85.4,187.9,83.8,187.7z M91.6,134c-1.1-0.1-2-0.2-3-0.2c-0.2,0-0.4,0.1-0.5,0.3c-2.3,2.8-5.3,4.5-8.5,6.1
		c-2.2,1-4.3,2.2-6.4,3.2c-1.3,0.6-1.9,1.5-1.9,3c0,1.1,0.5,1.9,1.3,2.4c0.8,0.5,1.6,0.1,2.3-0.4c3.4-2.8,6.8-5.4,10.1-8.3
		c1.5-1.3,3-2.2,5-1.9c0.9,0.1,1.4-0.4,1.5-1.3C91.5,136,91.5,135.1,91.6,134z M66.5,187.7c-0.2,1.5,0.2,2.3,1,2
		c-0.2-0.2-0.4-0.3-0.7-0.6c2.7-1.2,5.7-0.2,8.3-1.1c-1.9-0.2-3.9,0-5.9-0.8c2-1.1,4.1-0.1,6-0.6c0.1-1.8-0.6-2.4-2.4-2.4
		c-2.1,0-4.1-0.1-6.2-0.2c-0.2,0-0.3-0.1-0.7-0.3c0.4-0.2,0.7-0.5,1-0.5c1-0.1,2-0.3,3-0.2c1.6,0.1,3.3,0.3,5,0.5
		c0-0.6,0.1-1,0.1-1.3c0-0.6-0.2-1-1-1c-3.8,0-7.6,0-11.4,0c-1.4,0-2.8,0.1-4.2,0.2c0,1.2,0.2,1.3,1.5,1.7c0.5,0.1,0.9,0.5,1.3,0.8
		c-0.4,0.3-0.8,0.5-1.2,0.8c0,0-0.1,0.1-0.2,0.1c0,0.1,0,0.2,0,0.4c0.4,1.1,1.2,1.6,2.9,1.6c1.1,0,2.2-0.1,3.4-0.1
		c0.6,0,1.2,0.3,1.7,0.4c0,0.1,0,0.2,0,0.3C67.4,187.6,67,187.6,66.5,187.7z M89.1,144.3c-0.1,0-0.2,0-0.3,0
		c-1.1-1.2-0.9-2.8-1.1-4.4c-1.6,1.6-0.2,3.6-1.1,5.2c-1.2-0.4-0.9-1.7-1.4-2.4c-0.7,0.6-0.6,1.3-0.5,2c0.1,0.7,0.1,1.4,0.1,2.3
		c-1.7-0.5-0.9-2.2-2-2.9c-0.7,1.4,0.2,3.2-1.1,4.6c-0.3-1-0.6-1.8-1-2.8c-1,1.4-1.1,2.8-0.9,4.3c0.1,0.7,1.7,1.7,2.4,1.6
		c0.1,0,0.3,0,0.3-0.1c0.7-1.1,1.8-0.6,2.8-0.5c2.1,0.2,4.2,0.4,6.4,0.7c-0.8-3.7-1.6-7.2-2.4-10.7c0,0-0.1,0-0.1,0
		C89.2,142.2,89.1,143.2,89.1,144.3z M187.5,175.9c-0.1,0-0.2,0-0.3-0.1c-0.4,0.5-1,0.9-1.3,1.5c-1.1,1.7-1.6,3.7-1.7,5.6
		c-0.2,3.7-0.3,7.5-0.4,11.2c0,1-0.2,2-0.3,3.1c1.3-0.1,2.6,0.3,3.9-0.5c-0.5-0.6-0.9-1.1-1.2-1.6c-0.5-0.6-0.5-1.1,0.2-1.6
		c0.3,0.2,0.6,0.3,1.1,0.6c-0.6-1.2-1.1-2.2-1.7-3.2c0.5-0.5,0.8-0.5,1.1,0.1c0.1,0.4,0.4,0.7,0.7,1.1c0.1-0.1,0.2-0.1,0.3-0.2
		c0.2-1.8-1.6-3.2-1.2-5.1c0.5,0.7,0.9,1.4,1.4,2.1c0.5-0.8,0.1-1.5-0.2-2.2c-0.3-0.7-0.8-1.4-1.1-2.1c-0.2-0.5-0.2-1-0.3-1.5
		c0.1,0,0.2,0,0.3-0.1c0.6,0.7,1.2,1.4,1.9,2c0.1,0,0.2-0.1,0.3-0.1c-0.1-0.5-0.1-1.1-0.3-1.5c-0.3-0.6-0.7-1.1-1-1.6
		c-0.3-0.6-0.5-1.2,0.1-1.8c0.5,0.6,1.1,1.2,1.6,1.9c0.4-0.9,0.2-1.5-0.2-2.2c-0.3-0.5-0.7-1.1-0.9-1.7c-0.1-0.2,0.1-0.5,0.2-0.8
		c0.2,0.1,0.5,0.2,0.7,0.4c0.3,0.3,0.5,0.7,0.7,1c0.4-1.9-0.5-3.4-1.6-4.7c-0.2,0.3-0.4,0.6-0.7,0.9
		C187.4,175.2,187.5,175.5,187.5,175.9z M84.8,135.5c-2-1.3-2.4-3.2-2.6-5.2c-1.8-0.4-3.2,0.3-4.3,1.7c-1.2,1.6-2.3,3.3-3.4,4.9
		c1,0.5,1.8,1.1,2.7,1.5c0.5,0.2,1.1-0.1,1.6-0.2c-0.1-0.4-0.1-0.9-0.2-1.3c0-0.1-0.1-0.2-0.1-0.3c0.8-0.3,0.8-0.3,1-1.5
		c0.2-0.9,0.5-1,1.2-0.4c-0.1,0.3-0.2,0.6-0.4,1c1.1,0.1,1,0.6,0.7,1.3c-0.1,0.3-0.1,0.7-0.1,1.2c3-1.2,5.1-3.2,6.9-5.6
		c0.7-1,0.2-2.9-0.9-3.6c-0.3,1.4,1.6,2.8-0.2,4.3c-0.4-1-0.8-1.8-1.2-2.7c-0.1,0.2-0.1,0.4-0.2,0.5c-0.2,0.2-0.4,0.4-0.7,0.6
		c-0.2-0.2-0.4-0.5-0.5-0.7c-0.1-0.3-0.1-0.7-0.2-1.3C82.8,131.9,84.9,133.5,84.8,135.5z M81.4,157.2c-2.8,5.7-3.6,11.9-4.3,17.9
		c1.1,0.1,2.1,0.3,3.2,0.4c0-1.5-2.2-2.3-1.2-4.3c0.8,0.8,1.4,1.6,2.1,2.3c0.7-0.3,0.5-0.8,0.2-1.2c-0.4-0.6-0.9-1.1-1.4-1.7
		c-0.5-0.6-0.9-1.3-0.2-2.4c0.8,1,1.5,1.9,2.2,2.9c0.1-0.1,0.3-0.2,0.4-0.3c-0.3-0.7-0.6-1.3-1-2c-0.3-0.6-0.8-1.2-1.1-1.9
		c-0.1-0.4,0-1.2,0.2-1.2c0.5-0.2,0.8,0.2,0.5,0.7c0,0,0,0,0.1,0.1c0.6,0.6,1.3,1.1,1.9,1.7c0.3-1.4-0.1-2.3-1.1-3.5
		c-0.4-0.5-0.6-1.2-0.7-1.8c0-0.2,0.3-0.4,0.5-0.7c0.2,0.2,0.4,0.4,0.5,0.6c0.1,0.2,0.1,0.4,0.2,0.7c0.5-0.2,0.9-0.4,1.4-0.7
		C82.1,161,81.4,159.3,81.4,157.2z M101.8,150.5c-1.5,0.3-2.4,1.3-2.4,2.9c0,1.7,0.1,3.4,0.2,5.2c0.1,1.8-0.2,3.5-1.7,4.6
		c0.6,1,0.2,1.7-0.5,2.4c-0.5,0.5-1,0.9-1.4,1.4c-0.5,0.6-0.5,1.3,0.2,1.8c0.6,0.5,1.3,0.6,2,0.3c0.8-0.4,1.7-0.5,1.8-1.7
		c0.1-1.4,0.3-2.7,0.6-4.1c0.4-2.2,0.3-4.5,1.3-6.6c0.1-0.2,0.1-0.5,0-0.8c-0.1-0.4-0.2-0.6,0.2-0.9c0.6-0.5,0.5-1.6-0.1-2.1
		c0.3-0.3,0.6-0.7,0.8-0.9C102.5,151.4,102.2,150.9,101.8,150.5z M110.5,199.6c0.1-0.1,0.1-0.2,0.2-0.3c-2.1-2.8-4.1-5.5-6.2-8.3
		c-2.7-3.6-5.5-7-8.8-9.9c-1.8-1.6-3.9-2.6-6.3-2.6c-2,0-3.9,0.3-5.4,1.8c0.3,0.1,0.5,0.2,0.6,0.2c1.1,0.2,2-0.4,2.8-1
		c1.2-0.7,2.3-0.7,3.5,0c4.2,2.3,7.4,5.6,10.4,9.3c2.7,3.4,5.5,6.7,8.3,10.1C109.8,199.2,110.2,199.4,110.5,199.6z M99.5,193.1
		c0,0.7,0,1.2,0.1,1.6c0.2,0.6,0.6,1.2,0.9,1.8c0.3,0.7,0.5,1.4-0.1,2.2c-1.9-1-1.5-3.3-3-4.5c0.1,0.5,0.3,1,0.5,1.5
		c0.4,0.8,0.8,1.5,1.1,2.2c0.3,0.7,0.4,1.5-0.6,2.2c1.7,1.2,3.2,2.2,4.9,3.4c1.1-2.4,1.8-4.7,1.6-7.1c-0.1-1-0.5-1.9-1.4-2.4
		c-0.1,0.5-0.1,1-0.2,1.4c-0.1,0-0.2,0.1-0.4,0.1c-0.6-0.9-1.1-1.8-1.7-2.7c0.1,1.2,1.4,2.2,0.4,3.8
		C100.9,195.4,100.3,194.3,99.5,193.1z M140.8,214.2c-1.7-1.6-3.4-3-4.9-4.6c-3.1-3.5-4.8-7.4-3-12.2c0.3-0.7,0.1-1.2-0.8-1.5
		c-0.8-0.3-1.1,0.1-1.3,0.8c-0.8,2.4-0.5,4.8,0.1,7.2c0,0.1,0.1,0.3,0.2,0.4c1.4,0.9,1.7,2.4,2.2,3.8c0.3,1,0.7,2.1,1.3,2.9
		c1,1.2,2.2,2.1,3.4,3.1C139,214.7,139.9,214.8,140.8,214.2z M170.7,173c0-0.1,0-0.2,0-0.3c1-0.2,1.9-0.5,2.9-0.7
		c0-0.1,0.1-0.2,0.1-0.2c-0.3-0.1-0.7-0.3-1-0.4c-1-0.1-2.1-0.2-3.2-0.2c-0.3,0-0.5,0.2-0.8,0.3c0.1,0.3,0.2,0.6,0.4,0.9
		c0.3,0.3,0.7,0.5,1.1,0.7c0,0.1,0,0.2,0,0.3c-0.5,0.1-0.9,0.2-1.4,0.2c-0.6,0-0.8,0.3-0.8,0.7c0,0.2,0.4,0.4,0.7,0.5
		c0.1,0.1,0.3,0,0.5,0c0.4,0.1,0.7,0.3,1,0.5c-0.3,0.2-0.7,0.5-1,0.6c-0.4,0.1-0.8,0.1-1.3,0.1c1.2,1.7,1.4,1.7,3.2,1.5
		c0.3,0,0.7,0.2,1.2,0.4c-0.5,0.3-0.8,0.5-1.1,0.7c0.9,0.7,1.4,2.1,2.9,1.7c0.1-0.5,0.3-1,0.4-1.5c-0.7-0.3-1.3-0.7-1.9-1
		c0-0.1,0-0.2,0-0.3c0.4-0.1,0.8-0.1,1.2-0.2c0.3-0.1,0.6-0.3,0.9-0.4c-0.3-0.3-0.5-0.8-0.9-0.9c-0.5-0.2-1.1,0-1.6,0
		c-0.4,0-0.8-0.1-1.2-0.2c0-0.2,0-0.3,0-0.5c1-0.1,2-0.3,3.1-0.5C173.5,173.1,172.1,173.1,170.7,173z M73.8,171.9c0,0.1,0,0.3,0,0.4
		c-1.3,0.1-2.5,0.2-3.8,0.2c-1.5,0-3.1,0-4.6,0.1c-1.5,0.1-2.7,0.7-3.3,1.5c4,0,8,0,12,0c0.1-1,0.4-2.1,0.4-3.2c0-0.3-0.4-0.9-0.7-1
		c-1.3-0.1-2.7-0.1-4-0.1c-0.9,0-1.5,0.5-1.8,1.5C70,171.5,71.9,171.7,73.8,171.9z M91.6,123.5c1.7,0.4,2,0.3,2.6-1.2
		c0.3-0.9,0.4-2,0.5-3c0-0.2-0.2-0.6-0.3-0.7c-1.7-0.6-3.5-0.7-5.1-0.5c0.2,0.5,0.7,1.1,0.6,1.5c-0.1,0.8-0.9,1-1.7,0.9
		c-0.6-0.1-1.1-0.3-1.7-0.5c-0.3,0.6-0.1,1.2,0.4,1.7c0.4,0.4,0.9,0.8,1.1,1.3c0.3,0.7,0.7,0.6,1.3,0.4c-0.2-0.9-0.1-1.1,0.5-1.3
		C91,121.9,91.4,122.2,91.6,123.5z M95.5,165.7c0.9-0.5,0.8-1.2,0.7-1.9c-0.9-5-1.9-10-2.8-15c-0.5-2.6-1.1-5.1-1.6-7.7
		C92.3,149.4,93.8,157.5,95.5,165.7z M192.3,127.2c-0.1,0-0.1,0.1-0.2,0.1c0,1.2-0.1,2.3,0,3.5c0.1,1.1,0.8,1.9,1.8,2.3
		c0.2,0.1,0.6,0,0.7-0.1c1.2-1.3,2-2.8,2-4.6c0-0.9-0.7-1.7-1.8-2c-0.8-0.2-1.1,0.5-1.5,1c-0.2,0.2-0.3,0.4-0.6,0.8
		C192.7,127.7,192.5,127.4,192.3,127.2z M186.7,116.1c-2-0.7-2.7-0.6-3.6,0.5c-1.8,2-0.6,6.3,2,7c0.5,0.1,1.1,0,1.6-0.1
		c0.2,0,0.3-0.3,0.5-0.5c-0.2-0.1-0.4-0.3-0.6-0.4c-0.4-0.1-0.9-0.1-1.4-0.2c0.3-1.1,0.7-2.1,2-2.2c0-0.5-0.1-0.9-0.1-1.4
		c-0.5,0.2-0.9,0.4-1.3,0.5c-0.6,0.2-1.2,0.3-1-0.7c0-0.1-0.1-0.3-0.2-0.4c-0.7-0.6-0.7-1,0.1-1.4
		C185.3,116.6,185.9,116.4,186.7,116.1z M129.9,161.4c-1.7,0.3-2.6,1.2-3.3,2.3c-0.8,1.2-1.4,2.5-2.1,3.7c-0.4,0.7-0.2,1.2,0.6,1.3
		c1,0.1,2,0.2,3,0c0.9-0.1,1.6-0.7,1.7-1.8c-0.3,0-0.5-0.1-0.7-0.1c-1.3-0.2-1.6-0.6-0.9-1.8c0.4-0.6,0.8-1.2,1.1-1.9
		C129.6,162.7,129.7,162.2,129.9,161.4z M58.2,176.9c0.7,0,1.2,0,1.7,0c2.6,0,5.2,0.2,7.9,0.1c1.5,0,3-0.4,4.5-0.7
		c0.3-0.1,0.6-0.4,0.9-0.7c-4.2-0.2-8.4-0.1-12.5-0.2C59.4,175.4,58.9,176,58.2,176.9z M109,203.9c0.1,0.1,0.2,0.2,0.4,0.2
		c1-0.3,1.9-0.5,3-0.8c-0.3-0.5-0.5-1-0.7-1.4c0.1-0.1,0.2-0.2,0.2-0.3c0.6,0.4,1.2,0.7,1.8,1.1c0.7,0.5,1.3,0.7,1.9,0
		c-0.4-0.6-0.7-1.2-1.1-1.8c0-0.1,0.1-0.2,0.1-0.2c0.4,0.1,0.9,0.2,1.2,0.4c0.4,0.3,0.6,0.8,1,1.2c0.6,0.7,1.2,0.7,1.8,0.3
		c-0.2-0.6-0.3-1.2-0.6-2c-1.2-0.1-2.6-0.4-4.1-0.4c-1.7-0.1-3.1,0.8-4.2,2C109.5,202.5,109.3,203.2,109,203.9z M208.1,193.7
		c-1.2-0.6-2.9,0.1-3.8-1.5c-0.5,0.6-1,1.1-1.5,1.6c-0.6,0.7-1.2,0.7-2,0.4c-0.4-0.1-0.8-0.2-1.1-0.3c0.4,0.7,0.8,1.3,1.2,1.9
		c1.6,0.1,3.2,0.3,4.8,0.3C207.2,196.2,208,195.4,208.1,193.7z M104.5,144.1c-0.7,0.3-1.3,0.7-2,0.9c-0.9,0.3-1.8,0.4-2.7,0.7
		c-0.4,0.1-0.8,0.4-0.9,0.7c-0.3,0.7-0.3,1.4-0.5,2.3c2.4,1,4.3-0.4,6.2-1.8c-0.7,0-1.5,0-2.2,0c0-1,0.7-1.2,1.4-1.6
		C104.1,145.1,104.7,144.9,104.5,144.1z M165.8,182.8c-0.5,0.9-0.4,1.5,0.1,2.2c2,2.9,3.9,5.8,5.8,8.6c0.1,0.2,0.3,0.4,0.5,0.6
		C171.7,189.5,168.4,186.4,165.8,182.8z M75.1,179.7c2,0.1,3.8,0.2,5.7,0.4c-0.1-0.7-0.4-1.2-0.3-1.7c0.1-0.4,0.6-0.6,0.9-0.8
		c-1.6-0.2-3.4-0.4-5.1-0.6c-0.3,0-0.8,0.1-0.9,0.4C74.8,178.1,74.6,179,75.1,179.7z M103.6,180.6c-0.9-1.7-2.2-3-4.6-4.7
		c-1.8-1.3-5.1-1.1-6.7,0.4c-0.1,0.1-0.2,0.3-0.2,0.4c0.1,0.3,0.2,0.8,0.3,0.8c0.3,0.1,0.7-0.1,0.9-0.3c1.3-1.1,2.8-1.4,4.4-0.8
		c2.1,0.8,3.7,2.5,5.3,4c0,0,0,0.1,0,0.2c-0.9,0.8-2.5,0.6-3.3,1.9C101.3,182.4,102.5,181.6,103.6,180.6z M104,182.7
		c3.5,4.3,6.5,9.1,10.5,13c-2.8-4.9-6.5-9.2-9.9-13.9C104.4,182.2,104.2,182.4,104,182.7z M76.5,139.8c-0.6-1.1-2.1-1.8-3.3-1.6
		c-0.7,0.1-1,0.5-0.7,1.2c0.2,0.5,0.5,1,0.7,1.6c-0.7,0.1-1.2,0.2-1.8,0.3c0.6,1,1.1,1.1,2,0.5C74.4,141.2,75.4,140.5,76.5,139.8z
		 M83.3,213.9c3,2.3,6.5,1,9.6,1.4c-2.3-0.7-4.7-1.5-7.1-2.2C85.3,213.9,84.3,213.7,83.3,213.9z M198.6,187.7
		c-0.8-1.1-1.8-1.3-2.7-1.3c-1.7-0.1-3.4-0.1-5.1-0.2c0.1,0.9,0.9,1.6,2.3,1.7C194.8,187.9,196.6,187.8,198.6,187.7z M90,176.4
		c0.1,0,0.2,0,0.4,0c1.3-3.8,0.1-7.4-0.7-11c-0.1,0-0.2,0-0.3,0C89.5,169,89.8,172.7,90,176.4z M142.6,161.6
		c-0.1-0.1-0.1-0.2-0.2-0.3c-1.2,0.5-2.4,1.1-3.5,1.6c-0.9,0.5-1.5,1.2-1.4,2.3c0,0.2,0.3,0.5,0.5,0.6c0.9,0.1,1.8,0.1,2.7,0
		c0.3,0,0.6-0.4,1.1-0.8c-0.4-0.1-0.5-0.1-0.6-0.2c-0.5-0.3-1.1-0.6-1.6-0.8c0.4-0.4,0.8-0.7,1.2-1.1c0.1-0.1,0.2-0.1,0.3-0.2
		C141.6,162.3,142.1,161.9,142.6,161.6z M62.2,169.1c0.1-0.1,0.1-0.2,0.2-0.3c-0.6-0.4-1.1-1-1.8-1.1c-2.2-0.2-4.4-0.3-6.6-0.4
		c-0.2,1.6-0.1,1.7,1.2,1.7c0.4,0,0.9-0.1,1.3-0.1C58.5,168.5,60.4,167.8,62.2,169.1z M197.5,121c-0.1,0-0.1,0-0.2,0.1
		c0.1,0.3,0.1,0.5,0.2,0.8c0.3,0.9,0.1,1.1-0.8,1.1c-0.8,0-1.7,0.1-2.5,0.1c-0.8,0-1.5-0.1-1.8-1.4c-0.5,1.7-1,3.2-1.5,4.7
		c1.2-0.5,2.2-0.9,3.2-1.4c-0.8-0.3-1.4,0.8-2.1,0.1c0.4-1.5,0.4-1.5,1.9-1.5c1.6,0,3.1,0.1,4.7,0.2
		C198.3,122.9,197.9,121.9,197.5,121z M151.2,208.4c-0.4,1.5-0.8,2.8-1.2,4.2c1.4-0.1,2.7-0.1,4.2-0.2
		C153.2,211,152.3,209.8,151.2,208.4z M208.8,173.4c-1.2,0.8-2.6,1.1-2.4,2.9c0.1,1.1,0.2,1.2,1.2,1.1c0.6-0.1,1.1-0.2,1.7-0.3
		C209.2,175.8,209,174.6,208.8,173.4z M69.6,178.3c-3.8-0.1-7.6-0.2-11.5-0.4c-0.8,0-0.7,0.4-0.5,1
		C61.6,178.7,65.6,179.3,69.6,178.3z M182.2,200.8c0-1,0-2,0-3.1c0-0.8-0.4-1.2-1.1-1.4c-0.7-0.2-0.9,0.3-1.1,0.8
		C179.4,199.2,180.1,200.4,182.2,200.8z M173.2,170.2c0.2-1.5-0.2-1.9-1.5-1.9c-0.8,0-1.6,0.1-2.5,0.2c0,0.6,0,1.2,0,1.9
		C170.5,170.3,171.8,170.3,173.2,170.2z M98.2,160.3c0.5-1.1,0.3-5.4-0.4-8.4C96.5,153.2,97,156.8,98.2,160.3z M87.7,176
		c0.1-2.4,0.2-4.8,0.3-7.2c-0.1,0-0.1,0-0.2,0c-0.6,1.8-1.2,3.6-1.8,5.2C86.6,174.7,87.1,175.3,87.7,176z M190.8,185.6
		c2,0,3.9,0,5.7,0c0.1-0.1,0.1-0.2,0.2-0.3c-0.2-0.2-0.3-0.6-0.5-0.6c-1.8-0.2-3.5-0.4-5.3-0.6C190.8,184.7,190.8,185.2,190.8,185.6
		z M183.8,125.9c-1.3-1.2-2-3.1-3.8-3.7c-0.4,0.9-0.4,1.2,0.5,2.2C181.3,125.4,182.3,126.3,183.8,125.9z M110.6,165.3
		c0,0.8,0,1.4,0.1,1.9c0.2,0.8,0.8,1.2,1.6,1.2c1,0,0.7-1,0.9-1.6c0.1-0.3-0.5-1-0.9-1.2C111.9,165.4,111.3,165.5,110.6,165.3z
		 M71,168.9c0.9,0,1.8,0,2.7,0c0.2,0,0.5-0.3,0.5-0.5c0-0.7-0.1-1.4-0.2-2C72.4,166.3,71.6,166.9,71,168.9z M134.8,204.5
		c0.4,1.7,3.3,1.9,6.8,0.5C139.1,204.9,137,204.7,134.8,204.5z M177.2,113.9c2.3-0.9,4.9-0.7,7-2.2
		C181.6,111.6,179.2,111.9,177.2,113.9z M191,183c1.8,0,3.5,0,5.3,0c0.2,0,0.3-0.2,0.5-0.3c-0.1-0.1-0.2-0.4-0.4-0.4
		c-0.3-0.1-0.6-0.1-0.9-0.1c-1.4-0.1-2.8-0.1-4.2-0.2C191.1,182.2,191.1,182.7,191,183z M211.6,187.8c0.1-0.1,0.2-0.2,0.2-0.2
		c-0.2-0.2-0.4-0.5-0.7-0.6c-1.2-0.1-2.3-0.3-3.5-0.3c-0.7,0-1.4,0.2-1.8,1.1C207.8,187.8,209.7,187.8,211.6,187.8z M134.6,191.2
		c0,0-0.1-0.1-0.1-0.1c-1.4,0.9-2.8,1.7-4.2,2.6c1.5,1.1,2.4,0.9,3.3-0.5C133.9,192.6,134.2,191.9,134.6,191.2z M53,165.5
		c0.6,0.3,1,0.7,1.4,0.8c1.2,0,2.4-0.1,3.5-0.2c0.2,0,0.3-0.4,0.5-0.7c-0.1-0.1-0.1-0.2-0.2-0.2C56.6,165.6,54.8,164.4,53,165.5z
		 M91,190c-0.1,0-0.2,0-0.2,0c-0.1,3.8-1,7.5,0.2,11.3C91,197.5,91,193.8,91,190z M60.4,171.2c0-0.8-0.2-1.2-0.9-1.4
		c-1.1-0.3-2.6,0.3-3.3,1.4C57.6,171.2,58.9,171.2,60.4,171.2z M73.5,199.5c-1.5,0.1-2.8,0.2-4.3,0.4c0.7,0.8,1.4,1.5,2.2,2.3
		C72.1,201.2,72.8,200.4,73.5,199.5z M183.3,177.9c-0.5,1.6-0.9,2.9-1.2,4.2c-0.2,0.8-0.1,1.5,0.8,2
		C182.9,182,183.8,180.1,183.3,177.9z M96.1,201.2c-0.2,0-0.4,0.1-0.7,0.1c1.7,3.3,3.2,4.3,5.2,3c-0.7-0.2-1.3-0.6-1.8-0.6
		c-1.3,0-1.7-1.2-2.7-1.6C96.1,202.2,96.2,201.7,96.1,201.2z M108,178.3c-0.1-0.8-0.6-1-1.4-0.9c-1,0.1-2,0.2-3.1,0.4
		c-0.1,0.9,0.2,1.2,1.3,1C105.8,178.7,106.9,178.5,108,178.3z M199.8,176c0,0.4,0,0.9,0,1.3c1,0,1.9,0,2.8,0c0-0.5,0-0.9,0-1.3
		C201.6,176,200.7,176,199.8,176z M202.5,173.5c-2.6-0.4-2.9-0.3-3.2,0.7c0.8,0.6,1.7,1.1,2.7,0.7
		C202.3,174.8,202.3,174,202.5,173.5z M172.6,185.1c-0.8,0.2-1.3,0.8-1.4,1.7c-0.1,1.2,0.3,2.1,1.1,2.9
		C172.4,188.2,172.5,186.7,172.6,185.1z M68.5,168.7c0-0.9,0.2-1.8-0.8-2c-0.7-0.2-1.5,0.8-1.7,2c0.2,0,0.4,0.1,0.6,0.1
		C67.2,168.7,67.8,168.7,68.5,168.7z M103.8,187.8c0.9,1.7,1.6,2,3.2,1.3C106.7,187.8,105.4,187.3,103.8,187.8z M209.7,183.5
		c1.5-0.4,3.3,0.9,4.5-0.8c-1-0.1-2-0.2-2.9-0.3C210.5,182.3,209.9,182.5,209.7,183.5z M78.8,191.4c0,1.9,0,3.9,0,6
		c0.6-1.1,1.5-1.9,1.1-3.2C79.5,193.2,79.1,192.3,78.8,191.4z M133.9,164.5c0.1,0,0.2-0.1,0.3-0.1c0.1-1,0.2-1.9,0.4-2.9
		c-0.5,0-1.2,0-2.2,0C132.9,162.6,133.4,163.6,133.9,164.5z M96.8,116.2c-3.2-1-6.9-1.4-10.3-0.9C89.8,115.6,93.5,115.9,96.8,116.2z
		 M162.2,155.1c1,1.9,2.4,0.1,3.5,0.8C165.5,154.6,164.1,154.3,162.2,155.1z M206.1,172.5c0.1,0.1,0.1,0.2,0.2,0.2
		c0.4-0.3,0.9-0.6,1.3-0.9c-0.6-0.3-1.1-0.7-1.8-0.9c-0.5-0.1-1.1,0.2-1,0.9C204.8,172.5,205.4,172.5,206.1,172.5z M98.6,188.8
		c0,2-1.2,3.2-2.8,4.2C99.1,192.3,99.6,191.4,98.6,188.8z M198.2,176c-0.7,0-1.3-0.1-1.9,0c-0.3,0-0.5,0.3-0.7,0.5
		c0.2,0.3,0.4,0.8,0.7,0.8c0.6,0.1,1.3,0,2,0C198.2,176.9,198.2,176.5,198.2,176z M199.5,172.1c0.8,0,1.7,0,2.6,0c0-0.5,0-0.9,0-1.4
		C200.1,170.5,199.4,170.9,199.5,172.1z M84.3,154.1c0-0.4,0-0.7-0.1-1c-2.5-0.3-3.4-0.4-3.1,1C82.1,154.1,83.1,154.1,84.3,154.1z
		 M204.1,187.9c-0.4-0.7-0.8-1.4-1.2-2c-0.5-0.8-1.2-1.1-1.9-0.7c-0.1,0.1-0.3,0.3-0.3,0.4c0,0.1,0.2,0.3,0.3,0.4
		c0.5,0.1,1,0.2,1.5,0.3c0,0.6,0.1,1.1,0.1,1.6C203.2,187.9,203.6,187.9,204.1,187.9z M70.6,191.2c0.9-1.8,1-1.8,2.7-1.3
		c0.5,0.2,1.1,0.3,1.7,0.3c0.2,0,0.5-0.2,0.7-0.4c0-0.1-0.1-0.2-0.1-0.4c-1.9,0-3.8,0-5.8,0C70,190.1,70.2,190.5,70.6,191.2z
		 M195.4,174.3c0.8,0.9,1.7,0.4,2.6,0.4c0-0.5,0-0.9,0-1.3C196.9,173.1,196.1,173.4,195.4,174.3z M71.1,192c1,0.1,1.4,1.3,2.6,0.9
		c0-0.7,0.3-1.4-0.6-1.7C72.3,190.8,71.6,191,71.1,192z M198.2,170.6c-0.7,0.1-1.3,0-1.9,0.2c-0.2,0.1-0.5,0.5-0.5,0.7
		c0,0.2,0.4,0.5,0.7,0.5c0.6,0.1,1.1,0,1.7,0C198.2,171.6,198.2,171.2,198.2,170.6z M55.2,172.5c0.4,0.6,0.7,1,1.1,1.6
		c0.6-1.1,2.2-0.2,2.7-1.6C57.7,172.5,56.6,172.5,55.2,172.5z M196,119.6c-0.8-1-1.8-1.4-2.7-1c-0.4,0.1-0.7,0.6-1,0.8
		c0.1,0.1,0.1,0.1,0.2,0.2C193.6,119.6,194.7,119.6,196,119.6z M108.6,180.1c-1.2,0-2.4,0-3.5,0c0,0.2,0,0.4,0.1,0.5
		c0.4,0.6,3,0.6,3.4,0.1C108.6,180.6,108.6,180.3,108.6,180.1z M87.7,198.4c0.1,0,0.2,0,0.3-0.1c0-1.5,0-3.1,0-4.9
		c-0.6,0.4-1,0.6-1.7,1c1.4,0.6,1.5,1.5,1.2,2.6C87.4,197.5,87.6,198,87.7,198.4z M206.1,183.3c0.3,0.8,0.6,1.5,0.9,2.4
		c0.6-0.7,1.8-0.8,1.4-2.1C207.7,183.4,207,183.4,206.1,183.3z M92.5,182c-1.2-0.9-2.3-1.3-3.7-1.1C89.3,182.1,90.2,182.3,92.5,182z
		 M202.8,182.9c-0.5,0-1,0-1.5,0c-0.1,0-0.2,0-0.4,0.1c0,0.5,0,0.9,0,1.3C202.9,184.6,203.2,184.4,202.8,182.9z M101.9,185.1
		c0.2,1.3,1.4,1.7,2.9,0.9c-0.1-0.2-0.2-0.5-0.3-0.5C103.7,185.3,102.9,185.3,101.9,185.1z M134.2,203.7c1.3-0.1,2.6-0.2,3.8-0.3
		c0-0.1,0-0.1,0-0.2c-1.3-0.2-2.6-0.5-4-0.7C134.1,202.9,134.1,203.2,134.2,203.7z M85.8,154.4c0.6,0,1.2,0,1.8,0
		c0.1-1.5-0.1-1.6-1.8-1.3C85.8,153.5,85.8,153.9,85.8,154.4z M92,154.4c0.1-1.3-0.8-1.1-1.4-1.2c-0.6-0.1-1.3-0.1-1.4,0.9
		C90.1,154.3,91,154.3,92,154.4z M186.6,134c-1,1.4-1.1,2.2-0.4,2.9C187.4,136.1,187.6,135.1,186.6,134z M121.1,170.4
		c0.7,0,1.2,0,1.9,0c-0.7-0.9-1.3-1.8-1.9-2.6c-0.1,0-0.1,0.1-0.2,0.1C121,168.7,121,169.5,121.1,170.4z M176.4,117.8
		c-0.7,0.2-1.2,0.3-1.6,0.5c-0.2,0.1-0.3,0.5-0.3,0.8c0,0.1,0.4,0.3,0.6,0.3c0.4,0.1,0.8,0,1.2,0C176.4,119,176.4,118.5,176.4,117.8
		z M187.2,169.8c-0.3,1.3,0.2,2.1,1.6,3C188.5,171.7,188.7,170.3,187.2,169.8z M107,182.1c0.2,1.6,0.6,1.8,1.8,1.1
		c0.2-0.1,0.4-0.4,0.5-0.5c-0.2-0.2-0.5-0.5-0.7-0.5C108.2,182,107.6,182.1,107,182.1z M108.2,200.1c0-0.1,0-0.2,0-0.3
		c-0.6,0-1.2,0-1.8,0.1c-0.3,0.1-0.5,0.7-0.7,1c0.4,0.1,1,0.3,1.3,0.1C107.5,200.9,107.8,200.5,108.2,200.1z M60,162
		c-0.1,0-0.3,0-0.4,0c0,0.5-0.2,1.4,0,1.5c0.5,0.3,1.2,0.2,1.9,0.3C61.5,162.5,60.4,162.6,60,162z M106.4,190.7
		c0.3,1.2,1.4,1.6,2.5,0.9C108.4,190.5,107.9,190.4,106.4,190.7z M151.7,154.3c1.4,0,2.7,0,3.9,0
		C154.3,154.1,153.1,152.8,151.7,154.3z M135.6,214.5c0-0.1,0.1-0.3,0.1-0.4c-0.6-0.5-1.2-0.9-1.9-1.5c0,0.8,0,1.4,0,2.1
		C134.5,214.7,135,214.6,135.6,214.5z M209.3,184.8c0.9,1.3,2.1,0.6,3,0.7c0.2,0,0.4-0.3,0.6-0.4c0-0.1-0.1-0.2-0.1-0.2
		C211.7,184.8,210.6,184.8,209.3,184.8z M98.5,181.5c0.3-0.5,0.7-0.8,0.6-0.9c-0.3-0.9,0.1-2.1-1.3-2.6
		C98.1,179.1,98.3,180.1,98.5,181.5z M108.2,193.2c1,1.2,1.7,1.4,2.7,1C110.4,193.2,109.9,193,108.2,193.2z M184.2,151.5
		c0.1-0.8,0.3-1.6,0.4-2.5c-2.7,1.2-2.7,1.2-2.5,2.1c0.5-0.4,0.9-0.8,1.6-1.5C183.9,150.4,184,150.9,184.2,151.5z M179.5,125.2
		c0.7,1.5,2.4,2,3.7,3c0-0.4-0.1-0.7-0.3-0.9C181.8,126.6,180.6,125.9,179.5,125.2z M61.8,164.7c0,0.1-0.1,0.2-0.1,0.3
		c1.1,1.6,1.5,1.8,2.5,0.7C63.3,165.3,62.5,165,61.8,164.7z M206,189.5c0.7,0.9,2.2,0.7,3.9-0.5C208.5,189.2,207.3,189.3,206,189.5z
		 M97.1,171.4c-0.1,0-0.2,0.1-0.3,0.1c-0.1,1.9,0.2,2.5,1.5,2.2C97.9,173,97.5,172.2,97.1,171.4z M130.5,162.9
		c-0.4,0.7-0.7,1.3-1.2,2.2c0.6-0.1,1.1,0,1.3-0.2C131,164.3,130.9,163.6,130.5,162.9z M195.8,117.4c0.1-0.1,0.2-0.1,0.2-0.2
		c-0.2-0.4-0.6-1.1-0.7-1.1c-0.5,0.2-0.9,0.5-1.4,0.8c0,0.1,0.1,0.1,0.1,0.2C194.6,117.3,195.2,117.3,195.8,117.4z M66.2,169.9
		c-1.2-0.3-1.8,0.2-2.3,1.8C64.7,171.2,65.4,170.6,66.2,169.9z M54.3,161.5c-1.7,0.3-2,0.7-1.5,1.6
		C53.2,162.6,54.4,162.8,54.3,161.5z M199.2,189.8c-0.6-1.2-1.5-0.7-2.4-0.7C197.5,190,198.3,190,199.2,189.8z M199.4,182.8
		c-0.5,0.3-1.3-0.4-1.4,0.6c0,0.2,0.5,0.7,0.8,0.7C199.4,184.1,199.6,183.6,199.4,182.8z M184.8,132.8c0.1,0,0.2-0.1,0.4-0.1
		c0.2-0.6,0.3-1.1,0.5-1.7c-0.1-0.1-0.1-0.1-0.2-0.2c-0.4,0.2-1,0.3-1,0.5C184.4,131.8,184.7,132.3,184.8,132.8z M156.3,156.3
		c0,0.1,0.1,0.2,0.1,0.3c0.8-0.3,1.6-0.6,2.6-1C157.7,155.2,156.9,155.6,156.3,156.3z M110.8,195.8c0.2,1.1,0.6,1.3,1.7,0.9
		C112.2,195.8,111.5,195.7,110.8,195.8z M132,165.2c0.4,0,0.7,0,1.1,0c-0.4-0.7-0.7-1.3-1-1.9c-0.1,0-0.1,0-0.2,0.1
		C132,163.9,132,164.5,132,165.2z M139,170.4c-0.5-0.3-0.9-0.5-1.5-0.8c0.1,0.8,0.2,1.3,0.2,2C138.2,171.2,138.6,170.8,139,170.4z
		 M188,146.4C187.9,146.4,187.9,146.4,188,146.4c-0.1,1.2-0.2,2.4-0.4,3.6c0.1,0,0.2,0,0.4,0C188,148.8,188,147.6,188,146.4z
		 M125.4,231.5c-1.1-0.1-2.1-0.1-3.2-0.2C123.2,232.1,124.3,231.8,125.4,231.5z M186.4,162.5c0.1-0.8,0.1-1.6,0.2-2.4
		c-0.4,0.5-0.5,1-0.8,1.4C185.5,162.1,185.7,162.4,186.4,162.5z M139.8,168.7c-0.2-0.5-0.4-0.8-0.6-1.1c-0.4,0.3-0.7,0.6-1.1,0.9
		c0.1,0.1,0.1,0.1,0.2,0.2C138.6,168.7,139,168.7,139.8,168.7z M202.4,190c0.9-0.1,1.5-0.2,2.2-0.4
		C203.8,188.7,203.6,188.7,202.4,190z M140.6,167.1c0.7,1.3,1.2,1.5,2,0.6C142,167.5,141.4,167.3,140.6,167.1z M131.9,160.2
		c0.4,0,0.7,0,1.3-0.1c-0.5-0.6-0.8-1-1.3-1.5C131.9,159.3,131.9,159.7,131.9,160.2z M130.4,158.4c-0.3,0.7-0.5,1.2-0.7,1.8
		C130.8,160.2,131,159.9,130.4,158.4z M162.5,153.2c0,0.1,0,0.2,0,0.3c1.1-0.1,2.2-0.2,3.3-0.3c0-0.1,0-0.2,0-0.3
		C164.7,153,163.6,153.1,162.5,153.2z M170.4,125c1.2-0.3,1.6-0.9,1.7-2.2C171.5,123.6,171,124.2,170.4,125z M204.5,185.1
		c-0.1,0.2-0.2,0.4-0.3,0.5c0.3,0.2,0.7,0.4,1,0.5c0.1,0,0.3-0.3,0.5-0.5C205.4,185.4,205,185.3,204.5,185.1z M121.3,202.5
		c0.1-0.1,0.1-0.3,0.2-0.4c-0.7-0.3-1.3-0.7-2-1c-0.1,0.1-0.1,0.2-0.2,0.4C120,201.8,120.7,202.1,121.3,202.5z M187.9,112.6
		c0.7,1,1.2,1.2,2.1,0.6C189.3,113,188.7,112.9,187.9,112.6z M186.2,159.3c0.1,0,0.3,0,0.4,0.1c0.1-1,0.3-2,0.4-3
		c-0.1,0-0.1,0-0.2,0C186.6,157.3,186.4,158.3,186.2,159.3z M96.4,189.4c0.1,0,0.2,0,0.3,0.1c0.1-0.4,0.2-0.8,0.2-1.2
		c0-0.1-0.2-0.2-0.4-0.3c-0.1,0.3-0.2,0.7-0.2,1C96.4,189.1,96.4,189.2,96.4,189.4z M163,171.2c0-0.1,0.1-0.2,0.1-0.2
		c-0.2-0.2-0.5-0.5-0.7-0.5c-0.4,0.1-0.7,0.3-1.1,0.5c0,0.1,0.1,0.1,0.1,0.2C162.1,171.2,162.6,171.2,163,171.2z M126.8,202.3
		c0.7,0.3,1.4,0.6,2.2,0.9C128.8,202.5,128.2,202.3,126.8,202.3z M132.8,166.7c0.4,0.6,0.7,1,1.1,1.5c0-0.7,0-1.1,0-1.5
		C133.6,166.7,133.3,166.7,132.8,166.7z M184.3,129.8c1-0.7,1.2-1.3,0.6-2C184.7,128.4,184.5,129,184.3,129.8z M180.8,114.4
		c0,0.1,0,0.3,0,0.4c0.4,0,0.8,0.1,1.1,0c0.2-0.1,0.2-0.5,0.3-0.8c-0.1-0.1-0.1-0.1-0.2-0.2C181.6,114,181.2,114.2,180.8,114.4z
		 M94.5,199c0.8,0.4,1.6,0.8,2.3,1.1C96.2,199.1,95,198.6,94.5,199z M184.9,114.1c0-0.1,0-0.3,0-0.4c-0.4,0-0.7-0.1-1.1,0
		c-0.1,0-0.2,0.2-0.3,0.3c0,0.1,0.1,0.3,0.2,0.3C184.1,114.2,184.5,114.2,184.9,114.1z M198.1,185.3c0,0.1,0,0.2,0,0.3
		c0.4,0.2,0.8,0.4,1.3,0.6c0-0.3,0-0.6,0-1C198.9,185.2,198.5,185.3,198.1,185.3z M201.5,189.9c-0.5-0.9-0.9-0.9-1.5,0
		C200.5,189.9,201,189.9,201.5,189.9z M75.9,198.4c0-0.6,0-1,0-1.4c-0.1,0-0.2-0.1-0.3-0.1c-0.2,0.4-0.3,0.8-0.5,1.1
		C75.4,198.1,75.6,198.2,75.9,198.4z M138.1,206.9c-0.6,0.1-1.1,0.2-1.7,0.2C137,208,137.3,208,138.1,206.9z"/>
	<path class="st0" d="M84.7,64.3c-1.2-1.8-2.3-3.4-3.4-4.9c-0.5-0.7-1.2-0.9-2-0.5c-0.2,0.1-0.5,0-0.8,0c0.1-0.3,0.2-0.6,0.4-0.8
		c1-0.8,2.1-1.5,3.2-2.2c0.2-0.1,0.5,0,0.7,0c-0.1,0.2-0.1,0.5-0.3,0.6c-0.9,0.9-1,1.1-0.2,2.2c2,2.9,4,5.8,5.9,8.7
		c0.2,0.3,0.2,0.8,0.3,1.2c-0.4,0.1-0.9,0.3-1.3,0.2c-4-1.2-8-2.5-12-3.7c-0.4-0.1-0.7-0.2-1.2-0.3c0.1,0.2,0.1,0.4,0.2,0.5
		c1.4,2.1,2.9,4.2,4.3,6.3c0.8,1.1,1.1,1.1,2.3,0.6c0.2-0.1,0.5,0,0.8,0c-0.1,0.2-0.2,0.6-0.4,0.7c-3.1,1.8-5.7,4.3-8.3,6.8
		c-0.2,0.2-0.5,0.1-0.8,0.2c0-0.3,0-0.6,0.2-0.7c0.6-0.7,0.3-1-0.4-1.4c-2.4-1.3-2.4-1.3-4.4,0.6c-1.3,1.2-1.3,2.4,0,3.5
		c0.3,0.2,0.8,0.2,1.2,0.2c0.3,0,0.5-0.3,0.8-0.5c0.2-0.1,0.4,0,0.6,0c0,0.2,0,0.5-0.1,0.6c-1.1,1-2.2,2.1-3.3,3.1
		c-0.1,0.1-0.4,0-0.6,0c0-0.2-0.1-0.5,0-0.6c0.7-0.8,0.4-1.6,0.1-2.5c-1.3-3.5-2.6-7-4-10.5c-0.2-0.6-0.4-1.2,0.2-1.5
		c0.4-0.2,1-0.1,1.4,0c3.5,1.5,7,3.1,10.5,4.7c1.4,0.6,2.5,0.4,3.4-1c0.2-0.3,0.2-0.9,0-1.2c-0.4-0.8-0.9-1.5-1.4-2.2
		c-1.3-1.9-2.5-3.8-3.8-5.6c-0.5-0.7-1-1-1.8-0.5c-0.2,0.1-0.5,0-0.8,0c0.1-0.2,0.2-0.6,0.3-0.7c1.1-0.8,2.2-1.6,3.4-2.3
		c0.3-0.2,0.9-0.2,1.3-0.1c2.9,0.8,5.8,1.7,8.6,2.6C84,64.1,84.2,64.1,84.7,64.3z M68.5,76.2c-1.5-0.7-2.8-1.3-4.3-2.1
		c0.6,1.6,1.2,2.9,1.8,4.4C66.8,77.7,67.6,77,68.5,76.2z"/>
	<path class="st0" d="M239,133c-2.7,0.3-5.3,0.5-8,0.9c-1.4,0.2-1.5,0.4-1.7,1.7c0,0.3-0.3,0.5-0.4,0.7c-0.2-0.2-0.4-0.5-0.4-0.7
		c-0.2-3.5-1-6.9-2-10.2c-0.1-0.3,0.1-0.7,0.1-1c0.2,0.2,0.5,0.4,0.7,0.7c0.3,0.6,0.6,0.7,1.1,0.3c0.7-0.5,1.4-0.9,2-1.5
		c0.2-0.2,0.3-0.6,0.3-0.8c-0.2-1-0.4-2-0.7-3c-0.1-0.3-0.5-0.6-0.8-0.7c-0.4-0.1-0.9-0.1-1.3-0.1c-1.2,0-1.4,0.3-1.4,1.5
		c0,0.2,0,0.4,0,0.6c0,0.2-0.2,0.4-0.3,0.4c-0.2,0-0.5-0.1-0.5-0.3c-0.4-1.4-0.8-2.9-1.1-4.4c0-0.2,0.1-0.4,0.2-0.6
		c0.2,0.1,0.5,0.1,0.5,0.3c0.4,1.1,1.4,1.2,2.3,1.3c3.7,0.5,7.4,1,11.1,1.6c0.4,0.1,0.9,0.5,1,0.9c0.1,0.2-0.3,0.8-0.6,1
		c-3.1,2.4-6.1,4.7-9.2,7.1c-1.3,1-1.6,1.9-0.8,3.4c0.2,0.3,0.8,0.6,1.2,0.6c1.9-0.1,3.8-0.3,5.6-0.4c1.1-0.1,2.2-0.2,3.2-0.3
		c0.9-0.1,1.7-0.3,1.6-1.5c0-0.2,0.2-0.4,0.4-0.9c0.2,0.5,0.4,0.7,0.4,1c0.2,1.3,0.3,2.6,0.4,3.9c0,0.4-0.3,1-0.6,1.3
		c-2.2,2.3-4.5,4.6-6.7,6.9c0.2,0,0.4,0.1,0.7,0c1.6-0.2,3.2-0.3,4.9-0.5c1.2-0.2,1.4-0.4,1.5-1.7c0-0.2,0.2-0.4,0.3-0.7
		c0.2,0.2,0.4,0.4,0.5,0.6c0.2,1.3,0.3,2.6,0.4,3.9c0,0.2-0.2,0.4-0.4,0.6c-0.1-0.2-0.4-0.3-0.4-0.5c-0.1-1.1-0.8-1.3-1.8-1.2
		c-3.5,0.4-7,0.7-10.5,1.1c-0.4,0-0.8-0.1-1.2-0.2c0.2-0.4,0.2-1,0.5-1.3c3-3,6-6,9.1-9c0.2-0.2,0.5-0.4,0.8-0.6
		C239.2,133.2,239.1,133.1,239,133z M231.8,122.9c1.3-0.9,2.5-1.8,3.6-2.6c0-0.1,0-0.1-0.1-0.2c-1.4-0.2-2.8-0.3-4.4-0.5
		C231.3,120.8,231.5,121.8,231.8,122.9z"/>
	<path class="st0" d="M36.9,160.4c0.2,1.7,0.4,3.3,0.7,4.9c0,0.1,0.4,0.3,0.6,0.3c1.4-0.2,2.7-0.4,4.1-0.6c0.8-0.1,1-0.7,1.1-1.4
		c0-0.3,0.3-0.5,0.5-0.8c0.2,0.3,0.4,0.5,0.4,0.8c0.3,1.9,0.6,3.9,0.8,5.8c0,0.3-0.1,0.6-0.2,0.9c-0.2-0.2-0.6-0.4-0.7-0.6
		c-0.3-0.9-0.8-1.1-1.7-1c-2.9,0.4-5.9,0.9-8.8,1.3c-0.8,0.1-1.2,0.5-1.3,1.4c0,0.3-0.2,0.5-0.4,0.8c-0.2-0.3-0.4-0.5-0.5-0.8
		c-0.3-1.9-0.6-3.9-0.8-5.8c0-0.2,0.2-0.5,0.3-0.8c0.2,0.2,0.5,0.3,0.5,0.6c0.3,1,0.9,1.2,1.8,1c0.9-0.2,1.8-0.2,2.6-0.4
		c0.3-0.1,0.6-0.5,0.6-0.7c-0.1-1.4-0.3-2.8-0.6-4.2c0-0.2-0.5-0.4-0.7-0.4c-0.9,0.1-1.8,0.3-2.7,0.3c-0.9,0.1-1.4,0.5-1.5,1.5
		c0,0.2-0.3,0.5-0.4,0.7c-0.1-0.3-0.3-0.5-0.4-0.8c-0.3-1.9-0.6-3.9-0.8-5.8c0-0.3,0.1-0.6,0.2-0.8c0.2,0.2,0.5,0.4,0.6,0.6
		c0.3,0.9,0.8,1.2,1.7,1.1c2.9-0.4,5.8-0.9,8.7-1.3c0.9-0.1,1.3-0.5,1.4-1.4c0-0.3,0.3-0.5,0.5-0.8c0.1,0.2,0.4,0.5,0.4,0.7
		c0.3,1.9,0.6,3.9,0.8,5.8c0,0.3-0.1,0.6-0.2,0.8c-0.2-0.2-0.6-0.4-0.7-0.6c-0.3-0.9-0.9-1.1-1.7-1C39.8,160,38.4,160.2,36.9,160.4z
		"/>
	<path class="st0" d="M233,176c-0.8,0.4-1.7,0.8-2.6,1.1c-1,0.3-2.1,0.4-3.2,0.8c-0.5,0.2-1,0.6-1.5,0.9c-0.2,0.1-0.4,0.2-0.6,0.4
		c-0.1-0.2-0.2-0.5-0.2-0.7c0.2-1.1,0.5-2.3,0.8-3.3c0.1-0.3,0.6-0.6,1-0.7c1.7-0.4,3.5-0.8,5.2-1.2c0.6-0.1,1.2-0.4,1.2-1.3
		c-1.5-0.3-3-0.8-4.6-1c-0.3,0-0.7,0.6-1.1,0.9c-0.2,0.2-0.5,0.4-0.7,0.6c0-0.3-0.2-0.6-0.1-0.8c0.4-1.9,0.9-3.8,1.4-5.8
		c0.1-0.2,0.4-0.4,0.6-0.6c0.1,0.2,0.4,0.5,0.3,0.7c-0.1,1.1,0.4,1.5,1.4,1.7c2.7,0.6,5.5,1.3,8.2,2c0.9,0.2,1.6,0.2,2-0.9
		c0.1-0.2,0.3-0.3,0.5-0.4c0.1,0.2,0.3,0.5,0.2,0.7c-0.7,2.8-1.3,5.7-2.1,8.4c-0.5,1.8-2,2.7-3.6,2.4c-1.4-0.2-2.3-1.2-2.5-2.6
		C233.1,176.6,233.1,176.2,233,176z M236.8,176c1.3,0,2.3-0.7,2.5-1.8c0.1-0.5,0-0.9-0.6-1.1c-1.2-0.3-2.5-0.6-3.7-0.9
		c-0.5-0.1-0.7,0-0.9,0.6C233.7,174.5,234.9,176,236.8,176z"/>
	<path class="st0" d="M95.4,50.2c2.5,0,4.6,0.9,5.9,3.1c1.3,2.3,1.1,4.6-0.2,6.8c-1,1.8-2.5,3-4.4,3.9c-1.9,0.9-3.8,1.7-5.7,2.5
		c-0.2,0.1-0.6,0-0.9,0c0.1-0.3,0.1-0.6,0.3-0.8c0.8-0.6,0.8-1.2,0.4-2.1c-1.2-2.5-2.3-5.1-3.5-7.6c-0.5-1.2-0.7-1.2-1.9-0.8
		c-0.2,0.1-0.4,0-0.6,0c0-0.2,0-0.4,0.1-0.6c0.1-0.2,0.2-0.3,0.4-0.4c2.5-1.8,5.1-3.3,8.2-4c0.2,0,0.4-0.1,0.7-0.1
		C94.7,50.2,95.1,50.2,95.4,50.2z M99,58.8c-0.2-2.4-1-4.4-2.8-6c-1.6-1.3-3.6-1.5-5.3-0.6c-0.6,0.3-0.9,0.7-0.6,1.4
		c1.3,2.9,2.6,5.9,4,8.8c0.5,1,1.2,1.2,2.2,0.7C98.2,62.3,98.9,60.7,99,58.8z"/>
	<path class="st0" d="M132.9,55.6c-3.7-0.1-6.6-1.8-7.6-4.8c-1.5-4.4,1.8-9.2,6.6-9.4c1.1-0.1,2.2,0.1,3.3,0.4
		c3.4,0.9,5.5,3.7,5.4,6.9c-0.1,3.2-2.5,6-5.8,6.7C134.1,55.5,133.5,55.5,132.9,55.6z M137,49.3c-0.2-2.4-1-4.8-2.2-6.1
		c-1.7-1.8-4.2-1.4-5.3,0.8c-0.8,1.6-0.9,3.3-0.7,5.1c0.2,1.7,0.8,3.4,2.1,4.6c1.7,1.7,4.1,1.4,5.1-0.8
		C136.5,51.8,136.7,50.5,137,49.3z"/>
	<path class="st0" d="M49.5,208.6c0-4.3,4-7.6,8.3-6.6c3.8,0.8,6.8,4.7,6.7,8.5c-0.2,5.2-6.3,8.3-10.9,5.4
		C51.2,214.4,49.5,211.5,49.5,208.6z M62.3,207.7c0-2.6-1.6-3.9-3.9-3.5c-2.9,0.5-6.1,3.7-6.8,6.6c-0.5,2.5,1.2,4.4,3.8,4
		c2.3-0.4,4.1-1.8,5.5-3.6C61.7,210,62.3,208.8,62.3,207.7z"/>
	<path class="st0" d="M217.4,80.9c0,4.9-3.9,8.1-8.3,7.3c-3.3-0.6-6.4-4-6.7-7.4c-0.3-2.6,0.7-4.8,2.9-6.3c2.3-1.6,4.8-1.8,7.3-0.6
		C215.7,75.4,217.2,78.1,217.4,80.9z M215.3,78.7c0-2.3-1.7-3.8-3.9-3.4c-2.3,0.5-3.9,1.9-5.2,3.8c-0.9,1.2-1.4,2.6-1.4,4.1
		c0,2.2,1.8,3.5,3.9,3c2-0.5,3.5-1.7,4.7-3.2C214.4,81.6,215.2,80.2,215.3,78.7z"/>
	<path class="st0" d="M164,250.9c-3.9-0.1-6.9-2.5-7.3-6c-0.4-3.7,2-7.1,5.9-8.1c3.8-1,7.2,0.3,8.8,3.4c2.2,4.2-0.4,9.3-5.2,10.4
		C165.6,250.8,164.8,250.8,164,250.9z M168.9,245.2c-0.2-2.6-1.2-5.3-3.8-7c-2.1-1.4-4.5-0.4-4.9,2.1c-0.6,3.5,0.6,6.4,3.3,8.7
		c0.9,0.8,2,1,3.1,0.7C168.1,249.2,168.9,247.9,168.9,245.2z"/>
	<path class="st0" d="M214.7,207.8c1.7,1.1,3.3,2.3,5,3.4c0.7,0.4,1.3,0.1,1.8-0.4c0.2-0.2,0.5-0.2,0.7-0.3c0,0.3,0,0.6-0.1,0.8
		c-0.7,1-1.4,2.1-2.2,3c-0.1,0.2-0.4,0.3-0.7,0.4c0-0.2-0.1-0.5,0-0.7c0.5-1.1,0.5-1.3-0.6-2c-2.9-2-5.7-4.1-8.6-6.1
		c-0.3-0.2-0.5-0.6-0.7-1c0.4-0.2,0.8-0.6,1.3-0.7c3.6-0.3,7.3-0.4,10.9-0.6c0.9-0.1,1.8-0.1,2.9-0.2c-0.3-0.3-0.5-0.4-0.8-0.6
		c-2-1.4-4.1-2.9-6.1-4.3c-0.8-0.6-1.5-0.6-2.2,0.3c-0.2,0.2-0.6,0.2-0.8,0.4c0.1-0.3,0-0.7,0.2-0.9c0.7-1,1.4-2.1,2.2-3
		c0.1-0.2,0.5-0.2,0.8-0.3c0,0.3,0.1,0.6,0,0.8c-0.5,0.8-0.2,1.3,0.4,1.8c0.2,0.2,0.5,0.4,0.8,0.6c2.2,1.6,4.4,3.1,6.6,4.7
		c0.7,0.5,1.3,0.6,1.9-0.1c0.1-0.2,0.5-0.2,0.7-0.2c0,0.3,0,0.6-0.1,0.8c-0.7,1.1-1.5,2.2-2.3,3.3c-0.3,0.3-0.8,0.5-1.2,0.6
		c-2.5,0.2-5,0.3-7.5,0.5c-0.7,0-1.4,0.1-2.2,0.2C214.7,207.7,214.7,207.7,214.7,207.8z"/>
	<path class="st0" d="M162.2,47.6c-0.9,2.9-1.7,5.7-2.5,8.4c-0.3,0.9,0.1,1.5,1,1.8c0.2,0.1,0.4,0.5,0.6,0.7c-0.3,0-0.6,0.2-0.9,0.1
		c-1.2-0.3-2.5-0.7-3.7-1.1c-0.2-0.1-0.3-0.4-0.5-0.6c0.2-0.1,0.5-0.3,0.7-0.2c0.8,0.3,1.3-0.1,1.6-0.9c1-3,1.9-6.1,2.9-9.1
		c0.2-0.7-0.1-1.1-0.8-1.4c-0.2-0.1-0.3-0.4-0.5-0.6c0.3-0.1,0.5-0.2,0.8-0.2c1.3,0.4,2.6,0.8,3.9,1.2c0.3,0.1,0.7,0.6,0.8,1
		c1.1,2.7,2.2,5.3,3.2,8c0.1,0.3,0.3,0.7,0.5,1.2c0.6-2.1,1.2-4,1.8-5.9c0.2-0.9-0.1-1.5-0.9-1.8c-0.2-0.1-0.4-0.4-0.5-0.5
		c0.3-0.1,0.6-0.3,0.8-0.2c1.2,0.3,2.5,0.7,3.7,1.1c0.2,0.1,0.3,0.4,0.5,0.6c-0.2,0.1-0.5,0.2-0.7,0.2c-1.1-0.2-1.4,0-1.8,1.2
		c-1,3.4-2,6.7-3.1,10.1c-0.1,0.4-0.4,0.7-0.7,1c-0.3-0.3-0.8-0.6-1-1c-1.7-4-3.2-8.1-4.9-12.2C162.4,48.2,162.4,48,162.2,47.6z"/>
	<path class="st0" d="M95.7,232c3.1,1.3,6.2,2.5,9.2,3.8c0.4,0.2,0.8,0.3,1.2,0.5c0.2,0.1,0.3,0.3,0.4,0.5c-0.2,0.1-0.4,0.3-0.6,0.3
		c-1.7,0-1.7,0-2.3,1.6c-1,2.4-2,4.8-3,7.3c-0.4,0.9-0.4,1.7,0.6,2.2c0.2,0.1,0.2,0.4,0.4,0.7c-0.2,0-0.4,0.2-0.6,0.1
		c-3.4-1.4-6.7-2.8-10.2-4.2c0.3-0.8,0.6-1.6,1-2.4c0.1-0.2,0.3-0.4,0.5-0.4c0.2,0,0.3,0.3,0.5,0.4c0.1,0.1,0.1,0.3,0.1,0.5
		c0.4,1.7,1.6,2.7,3.4,2.9c0.3,0,0.7-0.2,0.8-0.5c0.5-1,0.9-2,1.3-3c0.2-0.5,0-0.8-0.5-1c-1.1-0.5-2.3-1.1-3.3,0.3
		c-0.1,0.1-0.4,0.1-0.7,0.2c0-0.2-0.2-0.5-0.1-0.7c0.4-1.1,0.9-2.3,1.4-3.4c0.1-0.2,0.4-0.3,0.6-0.4c0.2,0.2,0.4,0.5,0.4,0.7
		c0.2,1.6,0.6,2.1,2.1,2.4c0.3,0.1,0.8-0.2,0.9-0.4c0.5-1.1,0.9-2.2,1.3-3.3c0.4-1,0.1-1.6-0.9-2.1c-1.5-0.8-2.9-0.8-4.3,0.3
		c-0.1,0.1-0.3,0.3-0.5,0.3c-0.2,0.1-0.5,0.1-0.6,0c-0.1-0.2-0.2-0.5-0.1-0.7C94.7,233.6,95.2,232.8,95.7,232z"/>
	<path class="st0" d="M29.5,141.9c0.8,0,1.6,0,2.4,0c0.2,0,0.5,0.1,0.5,0.2c0,0.2-0.1,0.5-0.2,0.7c-0.1,0.1-0.3,0.2-0.5,0.3
		c-1.3,1-1.9,2.6-1.3,4.2c0.1,0.2,0.4,0.5,0.7,0.5c1.1,0.1,2.3,0.1,3.5,0c0.2,0,0.5-0.1,0.6-0.3c0.6-0.9-0.1-2.8-1-3.3
		c-0.3-0.1-0.5-0.5-0.7-0.7c0.3-0.1,0.7-0.3,1-0.3c1,0,2,0,3,0c0.3,0,0.6,0.2,0.9,0.4c-0.2,0.2-0.4,0.6-0.6,0.7
		c-1.4,0.7-1.8,1.4-1.4,2.9c0.1,0.2,0.4,0.6,0.6,0.6c1.3,0,2.6,0,3.9,0c0.8,0,1.2-0.6,1.4-1.4c0.3-1.5-0.4-3.1-1.7-4
		c-0.2-0.1-0.5-0.2-0.6-0.4c-0.1-0.2-0.2-0.5-0.2-0.7c0-0.1,0.4-0.2,0.5-0.2c0.8,0.1,1.7,0.2,2.5,0.4c0.2,0.1,0.5,0.5,0.5,0.7
		c0,3.5-0.1,7-0.1,10.6c0,0.2-0.2,0.5-0.3,0.7c-0.2-0.2-0.5-0.4-0.5-0.6c-0.1-1.3-0.9-1.5-2-1.5c-2.7,0-5.4,0-8.2-0.1
		c-1,0-1.6,0.3-1.8,1.3c0,0.2-0.3,0.4-0.4,0.6c-0.1-0.2-0.4-0.4-0.4-0.7c0-3.5,0.1-7,0.1-10.5C29.4,142.2,29.4,142.1,29.5,141.9z"/>
	<path class="st0" d="M53.4,90.3c-0.7-1.6-1.3-3-2-4.4c-0.3-0.6-0.8-0.5-1.2-0.1c-0.3,0.3-0.5,0.7-0.7,1c-0.2-0.1-0.3-0.2-0.5-0.3
		c0.1-0.3,0.1-0.7,0.2-1c2.5-3.8,2.5-3.8,3.4-3.6c-1,1.5-0.3,2.9,0.2,4.4c0.1,0.3,0.2,0.5,0.3,0.8c1.3,3.6,1.3,3.6,4.5,5.8
		c0.8,0.5,1.4,0.6,2-0.1c0.2-0.2,0.5-0.2,0.8-0.3c0,0.3,0,0.7-0.2,0.9c-1.1,1.6-2.2,3.2-3.4,4.8c-0.2,0.2-0.5,0.3-0.7,0.5
		c0-0.3-0.2-0.7-0.1-0.9c0.4-0.9,0.1-1.4-0.6-1.9c-1.7-1.5-3.6-2.2-5.9-1.9c-1.3,0.1-2.7,0-4,0.1c-0.6,0.1-1.3,0.4-1.9,0.7
		c-0.2,0.1-0.4,0.1-0.6,0.1c0-0.2-0.1-0.4,0-0.6c0-0.1,0.2-0.3,0.3-0.4c1.1-1.6,2.2-3.2,3.4-4.8c0.1-0.2,0.2-0.4,0.4-0.4
		c0.2-0.1,0.4-0.1,0.6-0.1c0,0.2,0.1,0.4,0.1,0.6c-0.5,1.3-0.5,1.4,0.9,1.4C50.3,90.3,51.8,90.3,53.4,90.3z"/>
	<path class="st0" d="M45.3,194.9c-0.2,0-0.4,0.1-0.5,0c-0.2-0.1-0.5-0.2-0.6-0.4c0-0.1,0.1-0.4,0.3-0.5c1-0.6,2.1-1.2,3.2-1.8
		c0.2-0.1,0.5,0,0.8,0.1c0,0.3,0,0.6-0.1,0.8c-0.9,1.5-0.9,2.1,0.2,3.3c0.2,0.2,0.7,0.3,0.9,0.2c1.1-0.6,2.2-1.2,3.3-1.9
		c0.8-0.4,0.6-1.1,0.5-1.8c-0.1-0.2,0.1-0.5,0.1-0.8c0.2,0.1,0.6,0.2,0.7,0.4c1,1.7,2,3.5,3,5.3c0.1,0.2,0,0.5,0.1,0.8
		c-0.3-0.1-0.7-0.1-0.8-0.3c-0.7-0.9-1.3-0.7-2.2-0.3c-2.4,1.4-4.9,2.8-7.3,4.1c-0.9,0.5-1.2,1.1-0.9,2c0.1,0.2,0,0.5-0.1,0.7
		c-0.2-0.2-0.6-0.3-0.7-0.5c-1.6-2.9-3.3-5.8-4.9-8.7c-0.3-0.5-0.2-0.8,0.3-1.1c0.6-0.3,1.1-0.6,1.7-0.9c0.2-0.1,0.5-0.1,0.6,0
		c0.1,0.1,0.1,0.4,0.1,0.6c0,0.1-0.1,0.2-0.1,0.3c-1.2,1.6-0.4,3,0.5,4.4c0.3,0.5,0.7,0.5,1.1,0.3c1-0.5,1.9-1.1,2.9-1.6
		c0.5-0.3,0.6-0.6,0.3-1.1C47,195.9,46.8,194.6,45.3,194.9z"/>
	<path class="st0" d="M197.4,61.6c1.2-0.2,5,2.5,4.9,3.3c-3.2-1-5.6,1.3-8.4,2c-0.2,0.1-0.4,0.3-0.5,0.5c-0.7,1-1.3,2-2,2.9
		c-0.5,0.7-0.5,1.3,0.1,2c0.2,0.2,0.2,0.6,0.3,0.9c-0.3-0.1-0.6,0-0.8-0.2c-1.7-1.1-3.3-2.2-4.9-3.3c-0.2-0.1-0.3-0.4-0.4-0.7
		c0.3-0.1,0.6-0.2,0.8-0.1c1,0.5,1.5,0,2.1-0.8c1.4-1.7,2-3.5,1.7-5.6c-0.2-1.3-0.1-2.6-0.1-3.9c0-0.8,0-1.6-0.8-2.1
		c-0.1-0.1-0.2-0.4-0.1-0.5c0.2-0.1,0.4-0.2,0.6-0.1c0.2,0,0.4,0.2,0.6,0.3c1.5,1,3.1,2.1,4.6,3.1c0.2,0.1,0.5,0.3,0.6,0.5
		c0.1,0.1,0.1,0.4,0.1,0.6c-0.2,0-0.4,0.1-0.6,0c-1.3-0.5-1.4-0.4-1.4,0.9c0,1.5,0,2.9,0,4.6c1.6-0.7,3.1-1.3,4.5-2
		c0.6-0.3,0.5-0.8,0.1-1.3C198.1,62.3,197.8,62.1,197.4,61.6z"/>
	<path class="st0" d="M150,56.7c-1.3-0.3-2.6-0.5-3.9-1c-2.3-0.9-3.1-2.4-2.7-4.8c0.3-2.2,0.6-4.4,0.9-6.6c0.1-0.9-0.1-1.5-1-1.8
		c-0.2-0.1-0.4-0.3-0.6-0.5c0.2-0.1,0.5-0.3,0.7-0.3c2,0.2,4.1,0.5,6.1,0.8c0.2,0,0.4,0.3,0.6,0.4c-0.2,0.2-0.4,0.5-0.6,0.4
		c-1.2-0.1-1.5,0.6-1.6,1.7c-0.3,2.4-0.7,4.9-0.9,7.3c-0.2,2,0.9,3.1,3,3.4c2.1,0.3,3.6-0.6,3.9-2.5c0.5-2.5,0.8-5.1,1.1-7.7
		c0.1-0.9-0.3-1.4-1.2-1.6c-0.3-0.1-0.5-0.3-0.7-0.5c0.3-0.1,0.6-0.3,0.9-0.3c1.2,0.1,2.3,0.3,3.5,0.5c0.2,0,0.4,0.3,0.6,0.4
		c-0.2,0.1-0.4,0.4-0.6,0.4c-1.1-0.1-1.3,0.7-1.5,1.5c-0.3,2.1-0.7,4.3-0.9,6.5C154.8,55.8,152.5,56.6,150,56.7z"/>
	<path class="st0" d="M231,158.4c-0.6-0.1-1,0.3-1.3,1.1c-0.1,0.3-0.4,0.5-0.6,0.7c-0.1-0.3-0.3-0.6-0.3-0.9
		c0.2-1.9,0.3-3.8,0.6-5.7c0-0.3,0.3-0.5,0.5-0.8c0.2,0.2,0.4,0.5,0.4,0.7c0.1,0.9,0.5,1.3,1.4,1.4c3,0.3,5.9,0.6,8.9,0.9
		c0.9,0.1,1.4-0.3,1.6-1.1c0.1-0.2,0.4-0.4,0.5-0.6c0.1,0.2,0.3,0.5,0.3,0.7c-0.3,3.4-0.6,6.7-1,10.1c0,0.1,0,0.3-0.1,0.3
		c-0.4,0.1-0.9,0.3-1.3,0.2c-0.6-0.1-1.3-0.3-1.9-0.5c0.2-0.2,0.3-0.6,0.5-0.7c1.9-0.6,2.1-2.2,2.2-3.8c0-0.6-0.2-0.9-0.8-1
		c-1.1-0.1-2.2-0.2-3.2-0.3c-0.6-0.1-0.8,0.2-0.9,0.8c-0.2,1.3-0.3,2.5,1.2,3c0.2,0.1,0.2,0.4,0.3,0.6c-0.2,0.1-0.4,0.3-0.6,0.3
		c-1.1-0.1-2.3-0.2-3.4-0.3c-0.3,0-0.5-0.3-0.7-0.4c0.2-0.2,0.3-0.5,0.6-0.6c1.5-0.6,1.9-1.2,1.7-2.8c0-0.3-0.4-0.7-0.6-0.7
		C233.6,158.7,232.4,158.6,231,158.4z"/>
	<path class="st0" d="M222.4,94.3C222.4,94.3,222.4,94.3,222.4,94.3c0.6,0,1.2-0.6,1.5,0.2c0.1,0.2-0.6,0.7-1,1
		c-0.7,0.5-1.3,1-2,1.4c-0.3,0.2-0.6,0.2-0.9,0.2c0-0.3-0.1-0.7,0.1-0.9c0.7-1.3,0.6-2.2-0.5-3.2c-0.2-0.2-0.7-0.2-0.9-0.1
		c-1.1,0.7-2.1,1.4-3.2,2.1c-0.6,0.4-0.6,1-0.4,1.6c0.1,0.3,0,0.6,0,0.9c-0.3-0.2-0.6-0.3-0.8-0.5c-1.1-1.6-2.2-3.2-3.2-4.8
		c-0.2-0.2-0.1-0.6-0.1-0.9c0.3,0.1,0.6,0.1,0.8,0.3c0.7,0.7,1.3,0.6,2,0.1c2.3-1.6,4.7-3.2,7.1-4.8c0.9-0.6,1.2-1.2,0.7-2.2
		c-0.1-0.2,0-0.5,0-0.7c0.2,0.1,0.6,0.1,0.7,0.3c1.9,2.8,3.8,5.6,5.7,8.4c0.1,0.1,0.2,0.4,0.2,0.4c-0.8,0.6-1.7,1.2-2.6,1.8
		c-0.1-0.3-0.3-0.6-0.1-0.8c1-1.7,0.3-3-0.7-4.4c-0.4-0.5-0.8-0.6-1.3-0.2c-0.9,0.6-1.8,1.2-2.7,1.8c-0.5,0.3-0.6,0.7-0.2,1.2
		C220.9,93.4,221.2,94.4,222.4,94.3z"/>
	<path class="st0" d="M85.3,231.1c0.1,0.2,0.3,0.4,0.5,0.6c0.8,0.5,1.7,1,2.5,1.5c0.5,0.3,0.8,0.2,1.2-0.1c0.2-0.2,0.5-0.5,0.8-0.7
		c1-1,1-1.3,0-2.3c-0.2-0.2-0.2-0.6-0.4-0.9c0.3,0,0.7-0.1,0.9,0.1c1.1,0.6,2.2,1.3,3.3,2c0.2,0.1,0.3,0.5,0.4,0.7
		c-0.3,0-0.6,0.2-0.8,0.1c-0.8-0.3-1.4,0.1-1.9,0.5c-3,2.3-6.1,4.5-9.1,6.8c-0.2,0.1-0.3,0.3-0.5,0.3c-0.4,0.1-0.9,0.2-1.2,0
		c-0.2-0.1-0.4-0.7-0.4-1c0.5-4,1.1-7.9,1.6-11.9c0.1-0.8,0.1-1.5-0.7-2c-0.1-0.1-0.1-0.4-0.1-0.6c0.3,0,0.6-0.1,0.8,0
		c1.5,0.9,3,1.8,4.5,2.7c0.2,0.1,0.5,0.2,0.6,0.4c0.1,0.1,0.2,0.4,0.3,0.6c-0.2,0.1-0.5,0.2-0.7,0.2c-1-0.5-1.3,0-1.4,0.9
		C85.6,229.5,85.4,230.2,85.3,231.1z M88,234.2c-1.1-0.6-1.9-1.2-3-1.8c-0.3,1.6-0.5,3-0.8,4.7C85.6,236.1,86.7,235.2,88,234.2z"/>
	<path class="st0" d="M226.8,192.7c-2-0.1-4-0.2-6-0.3c-0.7,0-1.3,0.1-1.7,0.8c-0.1,0.2-0.4,0.2-0.6,0.3c-0.1-0.2-0.2-0.5-0.1-0.7
		c0.8-1.8,1.7-3.6,2.6-5.4c0.1-0.2,0.4-0.2,0.7-0.4c0,0.2,0.2,0.5,0.1,0.7c-0.4,0.9,0.1,1.2,0.9,1.3c2.6,0.3,2.6,0.3,3.7-2
		c0,0,0-0.1,0-0.1c0.8-1.6,0.5-2.5-1.2-3.3c-0.5-0.3-1-0.2-1.3,0.3c-0.2,0.2-0.3,0.5-0.5,0.7c-0.1,0.1-0.4,0.2-0.6,0.1
		c-0.1-0.1-0.2-0.4-0.2-0.6c0.6-1.4,1.3-2.7,1.9-4.1c0.1-0.1,0.4-0.2,0.5-0.3c0.1,0.2,0.3,0.4,0.2,0.6c-0.4,1.1,0.3,1.7,0.9,2.4
		c2.5,2.8,5.1,5.6,7.5,8.4c0.3,0.3,0.4,0.9,0.3,1.2c-0.1,0.3-0.7,0.6-1.1,0.5C230.8,192.9,228.8,192.8,226.8,192.7
		C226.8,192.7,226.8,192.7,226.8,192.7z M227.9,186.1c-0.5,1.1-1,2-1.5,3.1c1.6,0.1,3,0.2,4.8,0.4C230,188.3,229,187.3,227.9,186.1z
		"/>
	<path class="st0" d="M35.6,182.1c0.2,1.5,1.1,2.3,2.4,2.7c0.5,0.1,0.8,0.6,1.2,0.9c-0.5,0.1-0.9,0.3-1.4,0.4
		c-0.8,0.1-1.5,0.1-2.3,0c-0.6,0-0.8-0.2-0.4-0.9c0.2-0.3,0.3-0.7,0.2-1c-0.8-2.6-1.6-5.2-2.4-7.8c-0.1-0.4-0.7-0.8-1-1.1
		c-0.2-0.2-0.3-0.4-0.4-0.5c0.2-0.1,0.3-0.3,0.5-0.4c1-0.2,1.9-0.4,2.9-0.6c0.3,0,0.6,0.1,0.9,0.2c-0.2,0.3-0.2,0.7-0.5,0.9
		c-1,0.8-1.5,1.6-1.1,2.9c0.2,0.6,0.4,0.8,1,0.6c3.1-1,6.2-2,9.3-2.9c0.8-0.2,0.9-0.7,0.9-1.5c0-0.3,0.2-0.6,0.4-0.9
		c0.2,0.3,0.5,0.5,0.6,0.8c0.6,1.8,1.2,3.6,1.7,5.4c0.1,0.3,0,0.6,0,0.9c-0.3-0.2-0.6-0.3-0.8-0.5c-0.4-0.8-1-1-1.9-0.7
		c-3,1-6,1.9-9,2.9C36.1,181.9,35.9,182,35.6,182.1z"/>
	<path class="st0" d="M41.2,100.6c0.5,0.3,1.1,0.5,1.7,0.8c2.4,1.2,4.9,2.3,7.3,3.5c0.9,0.4,1.6,0.5,2.2-0.4
		c0.1-0.2,0.5-0.3,0.8-0.4c0,0.3,0.1,0.6,0,0.9c-0.8,1.8-1.7,3.6-2.5,5.4c-0.1,0.2-0.4,0.4-0.6,0.5c-0.1-0.3-0.3-0.6-0.2-0.8
		c0.2-1-0.1-1.5-1-1.9c-2.8-1.3-5.5-2.6-8.3-3.9c-0.3-0.1-0.5-0.2-0.8-0.3c-0.8,1-0.8,2.1-0.3,3.2c0.2,0.4,0.5,0.8,0.6,1.3
		c0.1,0.2,0,0.4-0.1,0.6c-0.1,0.1-0.4,0.1-0.5,0c-0.9-0.7-1.8-1.5-2.6-2.3c-0.4-0.4-0.2-0.6,0.3-0.8c0.3-0.1,0.7-0.4,0.9-0.7
		c1.2-2.4,2.3-4.8,3.4-7.2c0.2-0.5,0.1-1.1,0.1-1.6c0-0.2,0-0.5,0-0.7c0.2,0,0.5,0,0.7,0.1c0.9,0.5,1.8,1,2.6,1.6
		c0.2,0.1,0.3,0.4,0.4,0.6c-0.2,0.1-0.4,0.3-0.7,0.4c-0.1,0.1-0.3,0-0.5,0C42.3,98.4,41.7,98.8,41.2,100.6z"/>
	<path class="st0" d="M183.7,53.9c-0.2,0.3-0.3,0.6-0.5,0.9c-1.3,2.7-2.6,5.4-3.9,8.1c-0.4,0.9-0.5,1.6,0.4,2.2
		c0.2,0.1,0.2,0.5,0.4,0.8c-0.3,0-0.6,0.1-0.9,0c-1.8-0.8-3.6-1.7-5.4-2.5c-0.2-0.1-0.4-0.4-0.5-0.7c0.3-0.1,0.6-0.3,0.8-0.2
		c0.9,0.3,1.4,0,1.8-0.9c1.3-2.8,2.7-5.7,4-8.5c0.3-0.7,0.2-0.9-0.5-1.2c-1-0.4-1.9-0.1-2.8,0.3c-0.4,0.2-1,0.2-1.5,0.3
		c0.2-0.5,0.4-0.9,0.7-1.3c0.4-0.6,0.9-1.1,1.4-1.6c0.2-0.2,0.4-0.3,0.6-0.3c0.1,0,0.2,0.4,0.4,0.5c0.2,0.3,0.3,0.6,0.6,0.7
		c2.4,1.2,4.9,2.4,7.4,3.5c0.4,0.2,1,0,1.5,0.1c0.2,0,0.5,0,0.7,0c0,0.2,0,0.5-0.1,0.7c-0.5,0.8-0.9,1.6-1.4,2.4
		c-0.2,0.3-0.5,0.4-0.8,0.6c-0.1-0.3-0.3-0.7-0.3-1C185.9,55,185.5,54.4,183.7,53.9z"/>
	<path class="st0" d="M110.4,251.9c-1.3-0.5-2.6-0.9-3.8-1.4c-0.6-0.2-0.8-0.7-0.6-1.3c0.2-0.5,0.3-1.1,0.4-1.7
		c0.1-0.2,0.3-0.3,0.5-0.5c0.1,0.2,0.4,0.3,0.4,0.6c0.1,0.4,0.1,0.8,0.2,1.2c0.4,1.6,1.9,2.3,3.4,1.7c1.2-0.5,1.5-1.9,0.5-2.8
		c-0.8-0.7-1.7-1.2-2.5-1.8c-1.3-0.9-2.4-2.1-2.3-3.9c0.1-2.6,2.6-4.7,5.6-4.3c1.5,0.2,2.9,1,4.4,1.6c0.6,0.3,0.9,0.8,0.6,1.6
		c-0.2,0.5-0.2,1-0.4,1.5c-0.1,0.3-0.4,0.5-0.6,0.8c-0.2-0.3-0.4-0.6-0.5-0.9c-0.1-0.3-0.1-0.6-0.1-0.9c0-1.1-0.6-1.9-1.6-2.4
		c-1.1-0.5-2.3-0.6-3.4,0.1c-0.9,0.6-1.2,1.9-0.5,2.8c0.4,0.6,1,1,1.6,1.5c0.9,0.8,1.8,1.4,2.6,2.3c1.3,1.5,1.1,3.7-0.7,4.8
		C112.9,251.2,111.6,251.5,110.4,251.9z"/>
	<path class="st0" d="M185.2,229.2c0-1,0.5-2.2,1.4-3.2c1.2-1.3,2.8-2.1,4.5-2.6c0.7-0.2,1.2,0,1.5,0.6c0.3,0.5,0.7,1,1,1.5
		c0.1,0.2,0,0.5,0,0.8c-0.2,0-0.5,0-0.7-0.1c-0.3-0.2-0.6-0.5-0.9-0.7c-0.9-0.7-1.9-0.9-3-0.4c-1.1,0.5-2,1.3-2.2,2.6
		c-0.2,1.4,1.1,2.4,2.7,2.2c1.2-0.1,2.3-0.4,3.5-0.6c0.3-0.1,0.7-0.1,1.1-0.1c2.4,0.1,3.9,2.1,3.2,4.5c-0.8,2.6-2.6,4.1-5.2,4.8
		c-0.3,0.1-0.7-0.1-0.9-0.3c-0.4-0.5-0.8-1.1-1.1-1.7c-0.1-0.2,0-0.5,0-0.7c0.3,0,0.6,0,0.8,0.1c0.4,0.2,0.8,0.5,1.2,0.7
		c1.5,0.7,3.1-0.3,3.4-1.8c0.2-1.1-0.5-1.9-1.6-1.9c-0.6,0-1.1,0.2-1.7,0.3c-0.9,0.2-1.8,0.5-2.7,0.5
		C187.1,234,185.1,232.1,185.2,229.2z"/>
	<path class="st0" d="M230.9,109.4c0,0.7,0.1,1.5,0,2.2c-0.3,2.6-2.6,4.2-5.2,3.6c-1.8-0.5-3.1-1.6-3.7-3.3
		c-0.5-1.2-0.7-2.6-0.9-3.9c0-0.3,0.4-0.9,0.7-1.1c0.5-0.4,1.2-0.6,1.9-0.8c0.2-0.1,0.5,0.1,0.7,0.1c-0.1,0.2-0.1,0.5-0.2,0.7
		c-0.2,0.3-0.5,0.5-0.8,0.7c-1.7,1.5-1.3,4.5,0.8,5.4c1.1,0.5,2.4,0,2.8-1.2c0.2-0.6,0.2-1.3,0.2-2c0.1-1.1,0-2.2,0.2-3.2
		c0.4-2.3,2.5-3.4,4.7-2.6c2.3,0.9,4.1,3.8,4,6.2c0,0.3-0.2,0.6-0.4,0.8c-0.6,0.3-1.3,0.6-1.9,0.8c-0.2,0.1-0.5,0-0.6-0.1
		c-0.1-0.2,0-0.5,0.1-0.7c0.3-0.4,0.7-0.7,1-1.1c1-1.3,0.6-3-0.8-3.8c-1.1-0.6-2.3,0-2.5,1.3C230.8,108,230.9,108.7,230.9,109.4
		C230.9,109.4,230.9,109.4,230.9,109.4z"/>
	<path class="st0" d="M208.4,210.1c4.6,0,7.7,4.1,6.4,8.6c-0.8,2.9-2.6,5.1-5.2,6.6c-0.3,0.2-0.9,0.1-1.3,0
		c-0.3-0.1-0.5-0.3-0.7-0.5c-0.3-0.3-0.5-0.6-0.8-0.9c0.4-0.1,0.8-0.4,1.2-0.3c2.6,0.7,4.8-1.5,4.7-4.2c-0.1-3.4-4.3-7.1-7.6-6.7
		c-2.7,0.3-4,2.4-3.4,5c0.1,0.5,0.1,1.1,0.1,1.6c-0.4-0.3-0.9-0.6-1.3-0.9c-0.7-0.6-0.7-1.3-0.4-2.1
		C201.2,213,205.1,210.1,208.4,210.1z"/>
	<path class="st0" d="M179.1,231c5.7,0,8.9,5.5,6.3,10.1c-1.7,2.9-4.4,4.4-7.6,5.1c-0.9,0.2-1.2-0.4-1.5-1c-0.2-0.4-0.4-0.9-0.6-1.3
		c0.5,0.1,1.1,0.1,1.5,0.3c2.5,1.5,5.7-0.4,5.8-3.8c0.1-3-1.2-5.5-3.8-7.1c-2.8-1.7-5.8-0.2-6.2,3.1c-0.1,0.5-0.3,1-0.5,1.5
		c-0.3-0.4-0.6-0.9-0.9-1.3c-0.5-0.8-0.3-1.4,0.3-2.1C173.9,232.2,176.6,231.3,179.1,231z"/>
	<path class="st0" d="M34.6,119.1c0.4,0.2,0.9,0.3,1.3,0.5c-0.4,0.3-0.7,0.8-1.1,1c-2.7,1-3.1,4.8-0.6,6.9c1.7,1.5,3.8,2,6.1,1.8
		c0.9-0.1,1.8-0.3,2.5-0.7c2.6-1.4,2.9-4.4,0.8-6.4c-0.4-0.4-0.6-0.9-0.9-1.3c0.6,0,1.2,0,1.7,0.1c0.5,0.2,1,0.5,1.2,0.9
		c1.6,3.8-1.2,9.8-5.2,11c-4,1.2-7.9-1.4-8.6-5.7c-0.4-2.3,0-4.5,0.8-6.7C33,119.6,33.5,118.9,34.6,119.1z"/>
	<path class="st0" d="M117.3,57.2c-3.6,0-6.4-1.9-7.2-5c-0.8-2.9,0.1-5.3,2.4-7.1c2.3-1.9,5.1-2.6,8.1-2.4c0.4,0,0.8,0.5,1,0.9
		c0.2,0.5,0.2,1.2,0.3,1.8c-0.5-0.3-1.1-0.5-1.6-0.9c-1.6-1.4-3.9-1.1-5.4,0.7c-1.3,1.6-1.4,3.4-1.1,5.3c0.3,1.8,1,3.4,2.4,4.6
		c2.4,2,5.4,1.2,6.5-1.8c0.2-0.5,0.5-0.8,0.8-1.3c0.2,0.5,0.4,0.9,0.5,1.4c0.3,1-0.2,1.6-1,2.2C121.3,56.7,119.3,57.1,117.3,57.2z"
		/>
	<path class="st0" d="M72.8,218.6c-0.5,0.1-1.1,0.3-1.7,0.4c-0.2,0-0.5-0.1-0.8-0.1c0.1-0.2,0.1-0.5,0.3-0.7
		c0.5-0.6,1.1-1.1,1.7-1.6c0.2-0.1,0.7-0.1,0.9,0c2.6,2.1,5.2,4.2,7.8,6.3c0.2,0.2,0.2,0.5,0.4,0.7c-0.3,0-0.7,0.2-0.9,0.1
		c-1-0.6-1.6-0.2-2.2,0.6c-1.7,2.2-3.5,4.4-5.3,6.6c-0.6,0.7-0.7,1.4-0.1,2.1c0.2,0.2,0.1,0.5,0.2,0.8c-0.3-0.1-0.6-0.1-0.8-0.3
		c-1.5-1.2-3.1-2.4-4.6-3.7c-0.2-0.2-0.3-0.5-0.4-0.7c0.3,0,0.7-0.1,0.9,0c0.8,0.4,1.4,0.2,1.9-0.4c1.6-2.1,3.3-4.1,5-6.2
		c1.4-1.8,0.9-3.2-1.3-3.7C73.4,218.7,73.2,218.7,72.8,218.6z"/>
	<path class="st0" d="M37,110.2c-0.2,1,0.2,1.5,0.9,1.7c2.8,0.9,5.6,1.9,8.4,2.9c0.8,0.3,1.4,0.1,1.8-0.7c0.1-0.2,0.5-0.4,0.8-0.5
		c0,0.3,0.1,0.7,0,1c-0.6,1.8-1.2,3.6-1.8,5.4c-0.1,0.3-0.4,0.4-0.6,0.7c-0.1-0.3-0.3-0.6-0.3-0.8c0.2-1-0.3-1.4-1.2-1.7
		c-2.7-0.9-5.3-1.8-8-2.7c-1-0.3-1.7-0.3-2.2,0.7c-0.1,0.2-0.4,0.3-0.6,0.4c0-0.3-0.1-0.6-0.1-0.8c0.6-1.8,1.2-3.6,1.8-5.4
		c0.1-0.3,0.4-0.6,0.6-0.8C36.7,109.7,36.9,110,37,110.2z"/>
	<path class="st0" d="M204.8,228.1c0.5-0.2,0.8-0.4,1.2-0.5c0.2-0.1,0.4,0,0.6,0c0,0.2,0,0.5-0.1,0.6c-1.7,1.4-3.3,2.8-5,4.1
		c-0.1,0.1-0.4,0-0.6,0c0-0.2,0-0.4,0.1-0.6c0.8-1.4,0.8-1.4-0.2-2.7c-1.7-2.1-3.4-4.1-5.1-6.2c-0.6-0.7-1.2-1-2.1-0.5
		c-0.2,0.1-0.6,0-0.9,0c0.1-0.3,0.2-0.6,0.4-0.8c1.5-1.3,3-2.5,4.5-3.7c0.2-0.2,0.5-0.2,0.8-0.2c0,0.3,0,0.7-0.2,0.8
		c-0.7,0.8-0.5,1.4,0.1,2.1c1.9,2.2,3.7,4.4,5.5,6.7C204,227.6,204.4,227.8,204.8,228.1z"/>
	<path class="st0" d="M139.1,249c0,1.9-1.3,3.3-2.9,3.3c-1.9-0.1-3.3-1.3-3.2-2.8c0.1-1.8,1.4-3.4,2.8-3.4
		C137.6,246.1,139.1,247.4,139.1,249z"/>
	<path class="st0" d="M82.9,213.5c0.9-0.2,1.9,0,2.5-0.8c2.4,0.7,4.8,1.5,7.1,2.2C89.4,214.5,85.9,215.7,82.9,213.5z"/>
	<path class="st0" d="M150.8,208c1,1.4,1.9,2.6,2.9,4c-1.5,0.1-2.8,0.1-4.2,0.2C150,210.7,150.4,209.5,150.8,208z"/>
	<path class="st0" d="M95.7,200.8c0,0.4,0,0.9,0.1,1c1,0.4,1.4,1.7,2.7,1.6c0.5,0,1,0.3,1.8,0.6c-2,1.3-3.6,0.3-5.2-3
		C95.3,200.9,95.5,200.8,95.7,200.8z"/>
	<path class="st0" d="M107.7,199.7c-0.4,0.4-0.7,0.8-1.2,1c-0.4,0.1-0.9-0.1-1.3-0.1c0.2-0.4,0.4-0.9,0.7-1c0.5-0.2,1.2-0.1,1.8-0.1
		C107.7,199.5,107.7,199.6,107.7,199.7z"/>
	<path class="st0" d="M135.1,214.1c-0.6,0.1-1.1,0.1-1.8,0.2c0-0.7,0-1.3,0-2.1c0.7,0.5,1.3,1,1.9,1.5
		C135.2,213.8,135.2,213.9,135.1,214.1z"/>
	<path class="st0" d="M122.4,200.5c0,1.1,0.1,2.1,0.1,3.2c0,0,0,0,0,0c-0.2,0-0.5-0.1-0.7-0.1c0,0,0,0,0,0c0-1.1,0-2.1,0-3.3
		C122,200.4,122.2,200.5,122.4,200.5C122.4,200.5,122.4,200.5,122.4,200.5z"/>
	<path class="st0" d="M124.9,231c-1.1,0.3-2.2,0.6-3.2-0.2C122.8,230.9,123.8,231,124.9,231z"/>
	<path class="st0" d="M120.9,202c-0.7-0.3-1.3-0.7-2-1c0.1-0.1,0.1-0.2,0.2-0.4c0.7,0.3,1.3,0.7,2,1C121,201.7,121,201.9,120.9,202z
		"/>
	<path class="st0" d="M126.3,201.9c1.4-0.1,2,0.2,2.2,0.9C127.7,202.5,127,202.2,126.3,201.9z"/>
	<path class="st0" d="M88,234.2c-1.3,1-2.4,1.9-3.8,2.9c0.3-1.7,0.5-3.1,0.8-4.7C86.1,233,87,233.5,88,234.2z"/>
	<path class="st0" d="M127.8,105.2c0-1.3-0.1-2.7-0.1-4c0-1.1,0.2-2.1,0.2-3.2c0.1-3.8-1.7-5.7-5.5-6.1c-3.2-0.3-6.4,0.1-9.6,0.5
		c-2.7,0.3-5.4,0.8-8.1,0.6c-3.4-0.2-6.7-0.9-10-1.4c-1.9-0.3-3.7-0.7-5.6-0.9c0.3,0.2,0.6,0.3,0.8,0.5c4.1,2.1,8.6,2.9,13.1,3.2
		c5.8,0.4,11.6-0.2,17.4-1c2.1-0.3,3.9,0.6,5.3,2.3c0.2,0.3,0.3,0.8,0.3,1.3c0,1.7-0.1,3.3-0.2,5c0,1.7,0.3,3.2,1.5,4.5
		c0.2,0.2,0.2,0.6,0.1,0.8c-0.4,0.7-0.9,1.3-1.3,2c-0.2,0.2-0.3,0.5-0.5,0.9c0.3-0.1,0.4,0,0.5-0.1c2-2.2,4-4.4,6-6.6
		c1.7-1.9,3.2-3.9,3.6-6.4c0.1-0.5,0.1-1,0.2-1.5c0.1-1.7-0.2-3-2.1-3.7c-1.1-0.4-2.1-1.2-2.9-2.4c0.5,0.1,0.8,0.1,1.3,0.2
		c-0.4-0.6-0.6-1.1-1-1.7c0.6-0.1,1-0.3,1.5-0.4c-0.3-1-0.3-1-2.6-1.2c0.6-0.7,1-1.3,1.6-1.7c1.3-0.9,3-0.6,4.1,0.5
		c0.4,0.4,0.7,0.6,1.3,0.1c0.8-0.7,2.3-0.5,3.3,0.3c0.8,0.6,1.5,1.4,2.1,2.2c1,1.1,2.1,2.1,4.1,2c-0.6,0.9-1,1.6-1.5,2.3
		c-0.4,0.6-1.1,1.2-1.2,1.9c-0.1,0.6,0.6,1.6,0.3,2c-0.5,0.8-0.3,1.3,0,1.9c0.2,0.4,0.3,0.8,0.5,1.3c-1.3,0.3-1.1,1.1-0.8,2.1
		c1.1,3.6,3.4,6.4,6.1,8.9c0.1,0.1,0.2,0.1,0.5-0.1c-0.5-0.8-1-1.6-1.4-2.2c0-2.2-0.1-4.4,0-6.6c0.1-1.7,0.1-3.4,0.4-5
		c0.5-2.7,3.5-4.7,5.9-4.6c5.8,0.2,11.6,0.2,17.4,0.3c5.2,0.1,10.4-0.1,15.5-1.8c1.1-0.4,2.1-0.8,3.3-1.2c0.3,0.8,0.1,1.3-0.6,1.6
		c-2.4,0.9-4.2,2.6-6,4.3c-1.6,1.5-3.1,3.1-5.3,3.9c-0.1,0-0.2,0.1-0.2,0.1c-0.9,1.6-2.5,1.7-4,2c-1.2,0.2-2.2,0.6-2.4,2.1
		c-0.1,0.4-0.7,0.9-1.2,1.1c-0.8,0.4-1.7,0.7-2.5,1c-1.2,0.4-1.9,1.2-2.3,2.5c-0.2,0.7-0.9,1.4-1.5,1.9c-0.7,0.5-1.6,0.9-2.4,1.3
		c-2.7,1.3-3.2,2-3.3,5.2c1.6,0.3,1.9-1.2,2.8-2c0.6,1.3,0.6,2.6,0.2,3.8c-0.5,1.3-1.1,2.5-1.8,3.7c-0.8,1.5-1.7,3-2.6,4.5
		c-0.1,0.2-0.6,0.4-0.9,0.4c-4.4-0.2-8.8-0.4-13.2-0.6c-8-0.4-15.9-0.5-23.9,0.6c-0.3,0-0.9-0.1-1.1-0.4c-0.7-1-1.4-2.1-1.9-3.2
		c-0.8-1.8-1.5-3.7-3.5-4.7c-0.2-0.1-0.4-0.8-0.3-1.1c0.4-1.3,1-2.5,1.6-4c0.4,0.5,0.6,0.8,0.8,1c0.9-1.8,0.3-3-1.5-3.4
		c-0.7-0.2-1.3-0.4-1.4-1.2c0-0.2-0.2-0.4-0.4-0.4c-1.1-0.3-1.7-1.1-2.1-2.1c-0.2-0.4-0.3-0.8-0.5-1.2c-0.7-1.5-1.4-1.9-3.1-1.5
		c-1.2,0.3-1.7,0-1.9-1.2c-0.1-0.3-0.1-0.6-0.1-0.8c-0.3-1.1-0.6-1.3-1.7-1c-1.1,0.3-2,0.1-2.9-0.6c-0.6-0.4-1.1-0.9-1.6-1.4
		c-0.9-0.8-1.8-1.3-3-1.2c-0.2,0-0.5-0.1-0.7-0.2c-1.6-1.2-3.2-2.5-4.8-3.8c-1.4-1.1-2.9-2.2-4.2-3.4c-0.3-0.2-0.4-0.7-0.6-1.1
		c0.1-0.1,0.1-0.2,0.2-0.3c1.3,0.2,2.6,0.3,3.8,0.6c2.3,0.6,4.4,1.6,6.7,1.9c4.1,0.6,8.3,0.7,12.5,0.4c3.9-0.3,7.8-0.4,11.7-0.5
		c1.4,0,2.8,0.3,4.1,0.7c2.8,0.7,4.3,2.5,4.2,5.5c0,2.1-0.4,4.2-0.6,6.3c-0.1,0.5-0.1,1-0.1,1.5C128,105.2,127.9,105.2,127.8,105.2z
		 M150.2,107.8c0.4-1,0.9-1.7,1-2.5c0.2-1.8,0.4-3.6,0.4-5.3c-0.1-2.3,0.9-3.9,2.7-5.1c0.8-0.5,1.7-1,2.6-1.4c0.4-0.2,1-0.2,1.5-0.1
		c4.8,1,9.7,1.2,14.6,0.9c1.4-0.1,2.8-0.3,4.2-0.5c1.4-0.2,2.7-0.5,4.1-0.7c-4.8,0.4-9.5-0.1-14.2-0.3c-3.7-0.2-7.3-0.2-11-0.2
		c-2.3,0-4,1.2-4.8,3.4c-0.5,1.2-0.7,2.6-0.8,3.9C150.3,102.5,150.3,105,150.2,107.8z M147.1,116.1c-0.2-0.7-0.3-1.2-0.5-1.7
		c-1,1.1-0.3,2.9-1.8,3.7c-0.2-1.2-0.4-2.2-0.7-3.5c-0.6,1.2-1.1,2.3-1.7,3.4c0.3,0.1,0.5,0.1,0.7,0.1c5.5,0.5,11.1,0.9,16.6,1.4
		c1,0.1,2.2-1.7,1.9-2.8c-0.9,0.7-1.8,1.5-2.6,2.1c-0.2-0.7-0.4-1.4-0.6-2.2c-0.5,0.6-0.8,1-1.2,1.4c-0.3-1-0.5-1.9-0.7-2.7
		c-0.9,1.1-1.7,2.2-2.8,3.6c-0.3-1.2-0.5-2.1-0.8-3c-0.4,0.6-0.7,1.2-1.1,1.7c-0.2,0.3-0.7,0.3-1,0.5c-0.1-0.4-0.4-0.7-0.4-1.1
		c0-0.6,0.2-1.2,0.3-1.6c-0.8,1-1.7,2-2.6,3.2c-1.3-2,0.9-3,0.9-4.6C148.5,114.6,147.9,115.2,147.1,116.1z M136.7,116.8
		c-0.5-1.5-1-2.9-1.5-4.2c-0.2,0.5-0.2,1-0.2,1.4c0,0.8,0,1.7-0.2,2.5c-0.1,0.4-0.5,0.7-0.7,1c-0.3-0.3-0.8-0.5-1-0.9
		c-0.2-0.4-0.3-1-0.4-1.5c-0.1-0.4-0.3-0.9-0.6-1.5c-0.6,1.6-1.2,2.9-1.7,4.3c-1-1.2-1.9-2.4-2.9-3.7c0.1,1.3,0.8,2.4,0.1,3.7
		c-0.7-0.6-1.3-1.2-2-1.9c0,0.8,0,1.5,0,2.3c-1.7-0.4-1.6-2-2.1-3.2c-0.1,0-0.2,0-0.3,0c0,1.2,0,2.4,0,3.5
		c5.1-0.3,10.5-0.6,15.8-0.8c0-3.1,0-3.4-0.8-4.1C138.2,115,137.8,116,136.7,116.8z M148.3,123.2c-0.4-0.2-0.8-0.5-1.2-0.5
		c-5-0.1-10-0.2-14.9-0.2c-0.3,0-0.6,0-0.9,0c0,0.7,0,1.1,0,1.6c6.6,0.2,13.2,0.3,19.8,0.5c0-0.5-0.1-0.9-0.1-1.6
		C150,123,149.1,123.1,148.3,123.2z M134.2,91.1c0.8,1,1.4,1.1,2.8,0.5c0.5-0.2,1.1-0.5,1.6-0.5c0.5,0.1,0.9,0.6,1.4,0.9
		c0.2-0.2,0.4-0.5,0.6-0.8c1.4,1.2,1.6,1.2,2.1,0.2c0.3,0,0.7,0,0.9-0.1c0-0.5,0-1-0.1-1.4c-0.1,0.1-0.1,0.2-0.2,0.2
		c-0.8-0.9-1.5-1.9-2.3-2.7c-0.6-0.6-1.4-1.1-2.2-1.4c-0.6-0.2-1.2-0.1-1.3,0.8c-0.1,0.8-0.7,0.9-1.4,0.4c-0.3-0.3-0.6-0.6-0.8-1
		c-0.6-1.1-1.5-1.3-2.8-0.5c1.5,1.4,2.9,2.7,4.6,4.2C136.1,90.4,135.2,90.7,134.2,91.1z M117.8,119.6c1.7-0.2,3.2-0.5,4.6-0.7
		c-0.7-1.6-1.3-3.2-1.9-4.7c-0.2,0.1-0.6,0.3-0.9,0.4c0.1,1.4,2,2.4,1,4.2c-1.8-1.3-2.2-3.2-2.6-5.2c-0.4,0.9-0.6,1.7-1,2.6
		C117.5,117.2,118.4,118.2,117.8,119.6z M120.9,100.7c-4.8-0.4-9.5,0.6-14.3,1.1c0.2,0.9,0.7,1.1,1.3,1c1.1-0.2,2.2-0.4,3.3-0.5
		C114.5,101.8,117.7,101.2,120.9,100.7z M100.4,98c0,0.1-0.1,0.2-0.1,0.4c0.5,0.2,0.9,0.6,1.4,0.6c1.9,0,3.8,0,5.7-0.1
		c3.3-0.3,6.6-0.7,9.9-1.1c0-0.1,0-0.2,0-0.3C111.6,97.4,106,99,100.4,98z M161.4,101.1c3.2,0.2,6.1,1.9,9.2,1.4
		c-0.7-0.2-1.6-0.4-2.4-0.6C166,101.2,163.7,100.7,161.4,101.1z M155,106.6c0,0.1-0.1,0.2-0.1,0.2c2.3,1.3,4.6,2.5,7.3,2.5
		c0-0.1,0.1-0.2,0.1-0.3C159.9,108.2,157.4,107.4,155,106.6z M167.3,96.2c1.3,0.9,8.9,1.5,10,1C173.9,96.8,170.6,96.5,167.3,96.2z
		 M156.3,123.4c-0.7,0.3-1.1,0.4-1.5,0.6c-0.4,0.1-0.7,0.3-1.1,0.4c0-0.4-0.1-0.7-0.1-1.1c-0.4,0-0.8,0-1.1,0
		c-0.1,0.5-0.3,0.8-0.4,1.3c1.3,0,2.6,0,4,0C156,124.4,156.1,124,156.3,123.4z M141.2,114c-0.5,1.4-0.9,2.7-1.3,4c0.5,0,1.1,0,1.9,0
		C141.6,116.6,141.4,115.3,141.2,114z M124.8,123.1c0.2,0.5,0.3,1,0.6,1.2c0.4,0.3,0.9,0.4,1.4,0.4c0.2,0,0.6-0.4,0.6-0.4
		c-0.1-0.4-0.3-0.8-0.6-1.1C126.2,122.7,125.6,122.6,124.8,123.1z M124,124.7c-0.1-0.4-0.2-0.9-0.5-1.3c-0.2-0.2-0.6-0.4-1-0.4
		c-0.2,0-0.6,0.3-0.6,0.5C121.9,124.6,123,125.2,124,124.7z M128,123c0.9,1.7,1.1,1.8,2.4,1.2c-0.4-0.6-0.8-1.2-1.2-1.8
		C128.7,122.7,128.3,122.8,128,123z M166,104.8c-1.9-0.6-3.8-1.1-5.7-1.7c0,0.1-0.1,0.2-0.1,0.3C162.2,103.9,163.9,105.2,166,104.8z
		 M142.3,120.9c1.2-0.1,2.4,0.3,3.6-0.3C144.9,119.8,142.7,119.9,142.3,120.9z M137.1,120.6c-1.3-0.8-2.4-0.3-3.6-0.5
		C133.6,121.1,135.2,121.3,137.1,120.6z M115.1,116.1c-0.3,1.7,0.8,2.5,1.6,3.4c0.1,0.1,0.5,0.1,0.6,0.1
		C116.7,118.5,115.9,117.4,115.1,116.1z M175.1,99.8c0-0.1,0-0.3,0-0.4c-1.9-0.1-3.7-0.3-5.6-0.4c0,0.1,0,0.2,0,0.4
		C171.3,99.5,173.2,99.6,175.1,99.8z M141,120.2c-1.1,0.1-2.1-0.4-3.2,0.5C140.2,120.9,140.7,120.8,141,120.2z M121.2,125
		c-0.4-1.2-0.9-1.7-1.6-1.5c0.2,0.5,0.5,1,0.7,1.6C120.7,125.1,120.9,125.1,121.2,125z M136.4,106.6c0.1-0.1,0.1-0.2,0.2-0.3
		c-0.1-0.4-0.2-0.8-0.2-1.2c-0.1,0-0.2-0.1-0.3-0.1c-0.3,0.4-0.5,0.8-0.8,1.1C135.7,106.3,136,106.4,136.4,106.6z M124.1,120.7
		c0.3,0.4,0.5,0.9,0.6,0.8c0.4,0,0.8-0.3,1.2-0.4c0-0.1,0-0.2-0.1-0.4C125.3,120.7,124.8,120.7,124.1,120.7z M149.6,120.6
		c0.1,0.2,0.1,0.6,0.2,0.6c0.6,0,1.2,0.3,1.9-0.4C150.9,120.7,150.4,120.7,149.6,120.6z M146.7,120.2c0.3,1,0.8,1.1,1.3,0.9
		c0.1,0,0.2-0.3,0.2-0.5C147.8,120.5,147.4,120.4,146.7,120.2z M129,120.9c0-0.2,0-0.3-0.1-0.5c-0.5,0.1-1,0.1-1.4,0.2
		c0,0,0,0.4,0.1,0.6C128.1,121.1,128.6,121,129,120.9z M122.6,121.5c-1.2-0.7-1.6-0.6-1.5,0.5C121.7,121.8,122.1,121.6,122.6,121.5z
		 M134.3,105.1c-1.2-0.3-1,0.3-1,0.8c0,0.2,0.3,0.4,0.4,0.6C133.9,106,134.1,105.6,134.3,105.1z M155.3,121.6
		c0.1,0.1,0.1,0.1,0.2,0.2c0.4,0,0.9-0.1,1.3-0.1c0-0.1,0.1-0.2,0.1-0.4c-0.3-0.1-0.7-0.4-1-0.4C155.7,121,155.5,121.4,155.3,121.6z
		 M130.3,120.8c0.6,0,1.1,0,1.7,0C131.7,119.9,131.6,119.9,130.3,120.8z M139.5,99.1c-0.1,0-0.3,0.1-0.4,0.1
		c-0.2,0.7-0.2,1.2,0.5,1.6c0.1,0,0.2-0.1,0.3-0.1C139.8,100.1,139.7,99.6,139.5,99.1z M139.9,103.7c-0.5-0.6-0.9-1-1.4-1.6
		C138.5,103.3,138.7,103.5,139.9,103.7z M112.5,106.7c0.9,0.8,1.5,0.7,1.9,0C113.8,106.7,113.2,106.7,112.5,106.7z M137.6,103.7
		c-0.2-0.7-0.3-1.2-0.6-1.9c-0.3,0.5-0.4,0.8-0.6,1.2C136.8,103.2,137.1,103.4,137.6,103.7z"/>
	<path class="st0" d="M182.2,211.3c0.1,1.2-0.8,2.3-2,2.4c-1.4,0.1-2.9-0.9-3-2.3c-0.1-1.5,0.8-3,2-3.1
		C180.9,208.3,182,209.4,182.2,211.3z M179.5,209.7c-0.9,1.6-0.9,2.3,0,2.8c0.7,0.3,1.1,0,1.4-0.6
		C181.3,210.8,180.9,210.1,179.5,209.7z"/>
	<path class="st0" d="M126.6,220.8c-0.2,1.1-0.4,1.9-0.6,2.9c-1.5-1.6-0.6-3.4-0.9-5c1.5,0,1.9,1.2,2.7,2c0.7-0.6-0.3-2,1.2-2.4
		c0.2,1.4,0.4,2.6,0.5,3.9c0,0.3-0.2,0.6-0.3,1c-0.4-0.1-0.9-0.2-1.2-0.5C127.5,222.1,127.2,221.5,126.6,220.8z"/>
	<path class="st0" d="M170.1,214.8c-0.1-0.4-0.1-0.8-0.3-1.1c-0.2-0.4-0.5-0.8-0.9-0.9c-0.6-0.1-0.7,0.4-0.8,0.9
		c-0.1,0.3-0.3,0.6-0.4,0.9c-0.1,0-0.2-0.1-0.3-0.1c0-1.5,0-3,0-4.5c0.9-0.1,1.8-0.2,2.6-0.2c1.1,0,1.4,0.6,1,1.7
		c-0.2,0.6-0.1,1.4,0,2.1C171.1,214.2,171,214.7,170.1,214.8z"/>
	<path class="st0" d="M153.3,223c0.2-1.8,0.4-3.4,0.6-5.3c1,0.2,2,0.4,2.9,0.7c0.9,0.3,1,1,0.5,1.8c-0.2,0.4-0.2,1-0.2,1.5
		c0,0.5,0,0.9,0,1.4c-0.1,0-0.2,0-0.4,0.1c-0.2-0.5-0.4-1-0.7-1.5c-0.2-0.3-0.7-0.7-1-0.6c-0.3,0-0.6,0.6-0.7,0.9
		C154.1,222.4,154.2,223.1,153.3,223z"/>
	<path class="st0" d="M148.7,217.2c0.9,0.1,1.7,0.2,2.4,0.4c1.1,0.2,1.2,0.6,0.9,1.6c-0.2,0.6-0.1,1.3-0.1,1.9c0,0.6,0,1.1-0.8,1.3
		c-0.2-0.5-0.2-1-0.5-1.4c-0.2-0.3-0.6-0.6-0.9-0.6c-0.2,0-0.5,0.5-0.6,0.8c-0.2,0.5-0.1,1.2-1,0.8
		C148.3,220.5,148.5,218.9,148.7,217.2z"/>
	<path class="st0" d="M136.1,218.7c-1-0.3-2.1-1.1-3.1,0.1c-0.5,0.6-0.3,1.6,0.4,2.3c0.5,0.6,1.1,0.4,1.8,0.1
		c-0.3-0.4-0.5-0.8-0.8-1.2c0.3-0.2,0.6-0.4,0.9-0.5c0.5-0.2,0.9-0.2,1.1,0.5c0.7,2.1,0.5,2.5-2.1,2.4c-1.6-0.1-2.4-0.8-2.5-2.3
		c-0.1-1.5,0.7-2.7,2.1-3C134.9,216.9,136.2,217.8,136.1,218.7z"/>
	<path class="st0" d="M173.4,215c-0.2-0.2-0.5-0.4-0.5-0.6c-0.1-1.4-0.2-2.9-0.2-4.5c1,0,1.8-0.1,2.7,0c0.8,0.1,0.9,0.5,0.8,1.3
		c-0.1,0.6,0.1,1.3,0.3,1.9c0.2,0.7,0.3,1.2-0.7,1.4c-0.2-0.4-0.4-0.9-0.7-1.2c-0.2-0.2-0.6-0.5-0.8-0.4c-0.3,0.1-0.5,0.4-0.6,0.7
		c-0.1,0.4,0,0.8,0,1.2C173.6,214.8,173.5,214.9,173.4,215z"/>
	<path class="st0" d="M146.6,219.5c-0.8,0.1-1.7,0.3-2.5,0.4c0,0.1,0,0.3,0,0.4c0.9,0.4,1.9,0.8,3,1.2c-1.2,0.7-2.3,0.5-3.3,0.4
		c-0.1,0-0.3-0.3-0.3-0.5c-0.3-1.6-0.3-3.1,0.2-4.7c1.2,0.2,2.5-0.4,3.4,0.6c0,0.1,0,0.2-0.1,0.3c-0.5,0-1.1-0.1-1.6,0
		c-0.3,0.1-0.6,0.4-0.9,0.6c0.3,0.2,0.6,0.4,0.9,0.5c0.4,0.1,0.9,0.2,1.3,0.3C146.6,219.3,146.6,219.4,146.6,219.5z"/>
	<path class="st0" d="M162.9,208.4c1,0.8,2.7-0.1,3.4,1.5c-1,0-1.9,0-2.8,0c0.1,1.3,1.6,0.7,2,1.7c-0.9,0.2-1.8,0.3-2.7,0.5
		c0,0.1,0,0.3,0,0.4c0.4,0.2,0.8,0.4,1.2,0.6c0.4,0.2,0.8,0.3,1.2,0.5c0,0.1-0.1,0.3-0.1,0.4c-1.2-0.2-2.4-0.4-3.7-0.6
		C161.9,211.7,162.4,210.2,162.9,208.4z"/>
	<path class="st0" d="M140.8,216.9c1,0.9,1.6,3.4,1.1,4.4c-0.5,0.9-1.3,1-2.2,0.9c-1,0-1.8-0.4-1.9-1.4c-0.1-1-0.1-2.1,0-3.1
		c0-0.2,0.3-0.4,0.5-0.5c0.1,0.2,0.4,0.3,0.4,0.5c0.1,0.4,0,0.8,0.1,1.1c0,0.4-0.1,0.9,0.1,1.2c0.2,0.5,0.7,0.9,1,1.3
		c0.3-0.5,0.8-0.9,0.9-1.4C140.9,219.1,140.8,218,140.8,216.9z"/>
	<path class="st0" d="M123.3,221.2c-0.5,0-1-0.1-1.5,0c-0.3,0-0.5,0.3-0.7,0.5c0.2,0.2,0.3,0.5,0.6,0.7c0.3,0.1,0.8,0.1,1.1,0.2
		c0.3,0.1,0.6,0.4,0.9,0.6c0,0.1-0.1,0.2-0.1,0.3c-1.1,0-2.1,0-3.3,0c0-1.6,0-3.2,0-4.8c1.2,0,2.3,0,3.5,0c0,0.1,0,0.2,0,0.3
		c-0.4,0-0.7,0.1-1.1,0.1c-0.4,0-0.8,0-1.1,0.1c-0.2,0.1-0.5,0.4-0.4,0.5c0,0.2,0.3,0.4,0.5,0.5c0.3,0.1,0.7,0,0.9,0.1
		c0.3,0.1,0.5,0.3,0.8,0.5C123.4,221,123.3,221.1,123.3,221.2z"/>
	<path class="st0" d="M155.6,206.1c1.1,0.4,2.5,0.1,3.3,1.4c-1,0-1.8,0-2.7,0c-0.1,0.1-0.1,0.2-0.2,0.3c0.5,0.4,1,0.8,1.7,1.3
		c-1.2,0.4-2.2,0.7-3.5,1.1C154.7,209,155.1,207.6,155.6,206.1z"/>
	<path class="st0" d="M177.7,205.6c-4.2,0.8-8.4,0.5-12.8,0.2C166,205.1,173.8,205,177.7,205.6z"/>
	<path class="st0" d="M161.1,208c-0.5,1.6-1,3.1-1.6,4.7c-0.2,0-0.4,0-0.5-0.1c0-0.5-0.2-1.1,0-1.6c0.2-1,0.6-1.9,1-2.9
		c0.1-0.2,0.5-0.3,0.8-0.4C160.9,207.8,161,207.9,161.1,208z"/>
	<path class="st0" d="M171.1,202.6c-1.9,0.1-3.8,0.2-5.7,0.3c1.8-1,3.8-0.4,5.7-0.6C171.1,202.3,171.1,202.4,171.1,202.6z"/>
	<path class="st0" d="M146.9,212c-1.4,0.8-3.6,0.6-3.9-0.2C144.2,211.9,145.4,211.9,146.9,212z"/>
	<path class="st0" d="M140,228.6c-4.5,0.2-9.1,0.3-13.6-0.2c0-0.2,0-0.3,0-0.5C131,228.2,135.5,228.4,140,228.6z"/>
	<path class="st0" d="M166.2,221.5c0.2-0.3,0.2-0.5,0.3-0.5c3,0,5.9,0,8.9,0C172.4,221.9,169.4,221.5,166.2,221.5z"/>
	<path class="st0" d="M114.6,228.3c3.2,0,6.5,0,9.7,0c0,0.1,0,0.2,0,0.3c-3.2,0-6.5,0-9.7,0C114.6,228.5,114.6,228.4,114.6,228.3z"
		/>
	<path class="st0" d="M108.7,218.6c1.4-1.1,2.8-0.5,4.5,0C111.5,218.6,110.1,218.6,108.7,218.6z"/>
	<path class="st0" d="M110.5,215.1c1.4-0.1,2.7-0.2,4.1-0.2c0,0.1,0,0.2,0,0.3c-1.4,0.1-2.7,0.1-4.1,0.2
		C110.5,215.2,110.5,215.1,110.5,215.1z"/>
	<path class="st0" d="M89.6,205.7c1.6,0,3,1.1,2.9,2.3c-0.1,1.6-1.5,3.1-2.9,3.1c-1.3,0-2.5-1.3-2.5-2.5
		C87.2,206.9,88.2,205.7,89.6,205.7z M89.7,209.5c0.6,0,1.5-1,1.3-1.8c-0.1-0.3-0.5-0.7-0.9-0.8c-0.7-0.1-1.4,0.6-1.4,1.4
		C88.7,209,88.9,209.5,89.7,209.5z"/>
	<path class="st0" d="M92.8,211.5c0.3-1.6,0.5-3.2,0.8-5c0.9,0.1,1.8,0.1,2.6,0.3c1,0.3,1.2,1.1,0.8,2c-0.2,0.6-0.2,1.3-0.2,2
		c0,1.1,0,1.2-1.2,1c0-0.3,0.1-0.6,0-0.9c-0.2-0.4-0.4-0.9-0.8-1c-0.6-0.2-0.8,0.3-0.9,0.8C93.8,211.7,93.8,211.7,92.8,211.5z"/>
	<path class="st0" d="M103,209.6c0,1.9-0.9,2.9-2.7,2.9c-1.5,0-2.4-1.3-2.4-3.1c0-1,1.6-2.3,2.7-2.2
		C101.8,207.2,103,208.4,103,209.6z M101.5,210c0-1.2-0.3-1.6-1-1.5c-0.7,0-1.3,0.7-1.3,1.4c0,0.8,0.6,1.5,1.3,1.5
		C101.6,211.3,101.6,210.6,101.5,210z"/>
	<path class="st0" d="M114.7,210.5c-1.9,0.7-2.1-1.2-3.2-1.7c-0.1,0.8-0.3,1.6-0.4,2.5c-1.4-1.6-0.9-3.4-1.4-5
		c1.5-0.4,1.9,1.1,2.9,1.6c0.1-0.7,0.3-1.4,0.5-2.3C114.9,207,113.9,209,114.7,210.5z"/>
	<path class="st0" d="M106.5,212c-0.4-1.4-0.8-2.8-1.1-4.3c0-0.1,0.3-0.4,0.5-0.5c1.2-0.6,2.6-0.8,4.1-0.6c-0.3,1.3-2.3,0.7-2.9,1.8
		c1,0.1,1.9,0.3,2.9,0.4c0,0.1,0,0.2,0,0.3c-0.5,0.1-0.9,0.3-1.4,0.4c-0.6,0.1-1.2,0.4-1,0.9c0.1,0.3,0.9,0.3,1.4,0.4
		c0,0,0.1,0,0.1,0c0.5,0,1.1,0,1.6,0.1c0.1,0,0.2,0.4,0.1,0.4c-0.5,0.2-1.1,0.4-1.7,0.5C108.4,212,107.6,212,106.5,212z"/>
	<path class="st0" d="M117.6,209.9c-0.4-1.5-1.1-3-0.7-4.5c0.1-0.3,0.5-0.5,0.9-0.6c0.3-0.1,0.8-0.1,1.1-0.1
		c0.9-0.1,1.5,0.4,1.7,1.3c0.2,0.8-0.2,1.3-0.9,1.6c-0.1,0-0.2,0.1-0.3,0.2C118.3,208,117.5,208.5,117.6,209.9z"/>
	<path class="st0" d="M93.7,48.3c0.7,0.2,1.1,0.3,1.5,0.4c-0.1,0.2-0.1,0.5-0.2,0.5C94.5,49.4,94,49.3,93.7,48.3z"/>
	<path class="st0" d="M179.5,209.7c1.4,0.5,1.8,1.1,1.4,2.2c-0.2,0.6-0.7,0.9-1.4,0.6C178.6,212,178.6,211.3,179.5,209.7z"/>
	<path class="st0" d="M89.7,209.5c-0.7,0-0.9-0.6-0.9-1.2c0-0.7,0.7-1.5,1.4-1.4c0.4,0.1,0.8,0.4,0.9,0.8
		C91.2,208.5,90.3,209.5,89.7,209.5z"/>
	<path class="st0" d="M101.5,210c0,0.7,0,1.3-0.9,1.4c-0.7,0-1.3-0.6-1.3-1.5c0-0.7,0.6-1.4,1.3-1.4
		C101.2,208.4,101.5,208.8,101.5,210z"/>
</g>
<image style="overflow:visible;" width="1200" height="1200" xlink:href="1200px-Seal_of_San_Francisco.svg.png"  transform="matrix(0.425 0 0 0.425 -917 -97)">
</image>
<text transform="matrix(1 0 0 1 369.2168 188.9238)" class="st0 st1 st2">S F G O V</text>
</svg>
